<svg version="1.1" xmlns="http://www.w3.org/2000/svg" xmlns:xlink="http://www.w3.org/1999/xlink" width="40.97155" height="35.36019" viewBox="0,0,40.97155,35.36019"><g transform="translate(-219.56497,-156.20376)"><g data-paper-data="{&quot;isPaintingLayer&quot;:true}" fill="#ffffff" fill-rule="nonzero" stroke="#ffffff" stroke-linejoin="miter" stroke-miterlimit="10" stroke-dasharray="" stroke-dashoffset="0" style="mix-blend-mode: normal"><g><g stroke-width="2.5"><path d="M227.80984,190.23089c0,0 0.38572,-1.48831 0.02088,-2.61271c-0.32634,-1.00569 -2.10731,-3.81738 -2.10731,-3.81738c0,0 -4.80181,-3.4026 -4.45048,-6.75239c0.03988,-0.38025 1.55492,-8.65615 6.39215,-13.30662c3.45744,-3.32395 10.46163,-3.61916 11.36288,-3.24656c0.69665,0.28802 5.09114,0.76773 9.14907,2.61307c5.71877,2.6006 11.008,6.50669 11.008,6.50669l-2.11548,13.60073l-20.88773,-0.2815l0.65373,7.36877z" stroke-linecap="butt"/><path d="M258.3204,176.93524l-13.04265,-2.71708l-3.29869,-3.35183l-3.24556,-10.00235l11.13491,3.65197l8.74834,5.05811z" stroke-linecap="round"/><path d="M242.67834,172.53465l-1.66263,-0.01328" stroke-linecap="round"/><path d="M240.04665,174.88898l2.37329,0.2565" stroke-linecap="round"/><path d="M240.73833,177.50739l-1.42322,-0.24891" stroke-linecap="round"/><path d="M255.41628,183.19942c0,0 -12.48808,-0.49576 -18.92009,0.01613c-1.58255,0.12595 -0.22818,1.97755 -1.21403,1.98057c-8.73479,0.02681 -9.62276,-2.02785 -10.42246,-3.02569c-1.98624,-2.47836 -4.15225,-5.78591 -4.04059,-6.36903c0.14359,-0.74982 1.88895,-2.49851 1.88895,-2.49851l3.91187,1.56639l5.44774,1.9438l5.69096,1.23314l9.97388,0.31723l8.04147,4.33986" stroke-linecap="round"/><path d="M255.06388,185.51037l-0.96905,2.36759l-12.35097,-0.09868l-2.60891,-0.49591l-0.93109,-2.38278l0.49022,-1.89635l1.19898,-1.41563l1.42132,0.48642l1.17621,1.4346l0.94058,1.19518z" stroke-linecap="round"/><path d="M231.85905,188.83806l0.2584,-2.61081" stroke-linecap="round"/><path d="M236.6284,186.50082l-8.54497,-0.78088" stroke-linecap="round"/><path d="M231.34386,164.13043l-1.20467,2.12818l0.45795,2.14147l-3.54759,-1.92862l0.27358,-4.51096l3.35563,-3.77373l1.40993,1.91154l0.21095,3.32716z" stroke-linecap="round"/><path d="M232.02699,167.81961l-3.32906,0.44847l-1.63606,-3.33855l0.96146,-1.41752l2.39226,-2.11869l1.90205,-0.22234l1.18,0.95956l1.1781,1.19708l0.45416,2.6165z" stroke-linecap="round"/></g><g stroke-linecap="butt"><path d="M253.00392,166.94423c2.56247,0.77602 3.1525,2.28665 2.72769,4.09277c-0.42481,1.80612 -2.33479,2.90204 -4.26607,2.44778c-1.93127,-0.45425 -3.1525,-2.28665 -2.72769,-4.09277c0.42481,-1.80612 1.62658,-3.24712 4.26607,-2.44778z" stroke-width="0"/><path d="M243.38312,168.97054c-0.99474,0.10249 -1.09723,-0.89225 -1.09723,-0.89225l-0.02355,-1.38205c0.61786,-1.50625 1.17388,-2.6614 2.3942,-3.75701c0,0 0.75269,-0.65837 1.41106,0.09433c0.65837,0.75269 -0.09433,1.41106 -0.09433,1.41106c-1.00404,0.8472 -1.37034,1.81004 -1.85999,3.00922l0.16206,0.41949c0,0 0.10249,0.99474 -0.89225,1.09723z" stroke-width="0.5"/></g></g></g></g></svg>