<svg version="1.1" xmlns="http://www.w3.org/2000/svg" xmlns:xlink="http://www.w3.org/1999/xlink" width="179.65916" height="179.65916" viewBox="0,0,179.65916,179.65916"><defs><radialGradient cx="240.20655" cy="237.56327" r="51.9073" gradientUnits="userSpaceOnUse" id="color-1"><stop offset="0" stop-color="#000000"/><stop offset="0.758" stop-color="#000000" stop-opacity="0.5"/><stop offset="1" stop-color="#000000" stop-opacity="0"/></radialGradient><linearGradient x1="168.0576" y1="142.19645" x2="311.94356" y2="142.19645" gradientUnits="userSpaceOnUse" id="color-2"><stop offset="0" stop-color="#262626"/><stop offset="0.255" stop-color="#4d4d4d"/><stop offset="0.515" stop-color="#000000"/><stop offset="0.745" stop-color="#4d4d4d"/><stop offset="1" stop-color="#262626"/></linearGradient><linearGradient x1="293.53176" y1="128.04609" x2="293.53176" y2="116.99651" gradientUnits="userSpaceOnUse" id="color-3"><stop offset="0" stop-color="#231f20"/><stop offset="1" stop-color="#000000"/></linearGradient><linearGradient x1="187.07428" y1="128.04347" x2="187.07428" y2="116.99622" gradientUnits="userSpaceOnUse" id="color-4"><stop offset="0" stop-color="#231f20"/><stop offset="1" stop-color="#000000"/></linearGradient><linearGradient x1="282.89357" y1="226.5632" x2="303.70105" y2="226.5632" gradientUnits="userSpaceOnUse" id="color-5"><stop offset="0.41" stop-color="#231f20"/><stop offset="1" stop-color="#4d4d4d"/></linearGradient><linearGradient x1="198.12734" y1="226.56204" x2="177.32015" y2="226.56204" gradientUnits="userSpaceOnUse" id="color-6"><stop offset="0.41" stop-color="#231f20"/><stop offset="1" stop-color="#4d4d4d"/></linearGradient><radialGradient cx="241.18302" cy="249.72104" r="133.37153" gradientUnits="userSpaceOnUse" id="color-7"><stop offset="0.169" stop-color="#cecece"/><stop offset="0.337" stop-color="#989899"/><stop offset="0.512" stop-color="#9b9b9c"/><stop offset="0.705" stop-color="#666666"/><stop offset="0.892" stop-color="#9b9b9c"/><stop offset="1" stop-color="#d9d9d9"/></radialGradient><radialGradient cx="240" cy="180.10749" r="72.20242" gradientUnits="userSpaceOnUse" id="color-8"><stop offset="0.952" stop-color="#000000"/><stop offset="1" stop-color="#404040"/></radialGradient><radialGradient cx="239.56683" cy="248.71175" r="124.16243" gradientUnits="userSpaceOnUse" id="color-9"><stop offset="0.169" stop-color="#cecece"/><stop offset="0.337" stop-color="#989899"/><stop offset="0.512" stop-color="#9b9b9c"/><stop offset="0.705" stop-color="#666666"/><stop offset="0.892" stop-color="#9b9b9c"/><stop offset="1" stop-color="#d9d9d9"/></radialGradient><linearGradient x1="240.00058" y1="249.38141" x2="240.00058" y2="112.39748" gradientUnits="userSpaceOnUse" id="color-10"><stop offset="0" stop-color="#ffffff"/><stop offset="0.188" stop-color="#999999" stop-opacity="0.891"/><stop offset="1" stop-color="#ffffff" stop-opacity="0"/></linearGradient><linearGradient x1="240" y1="119.22397" x2="240" y2="240.5959" gradientUnits="userSpaceOnUse" id="color-11"><stop offset="0" stop-color="#d9d9d9"/><stop offset="1" stop-color="#000000"/></linearGradient><radialGradient cx="240" cy="179.95933" r="61.89455" gradientUnits="userSpaceOnUse" id="color-12"><stop offset="0.922" stop-color="#333333"/><stop offset="1" stop-color="#333333" stop-opacity="0.5"/></radialGradient><linearGradient x1="175.62987" y1="179.95671" x2="303.83759" y2="179.95671" gradientUnits="userSpaceOnUse" id="color-13"><stop offset="0.012" stop-color="#ffffff" stop-opacity="0.3"/><stop offset="0.315" stop-color="#ffffff"/><stop offset="0.679" stop-color="#ffffff"/><stop offset="1" stop-color="#ffffff" stop-opacity="0.3"/></linearGradient><linearGradient x1="187.53331" y1="118.85326" x2="187.53331" y2="127.21315" gradientUnits="userSpaceOnUse" id="color-14"><stop offset="0" stop-color="#ffffff"/><stop offset="0.521" stop-color="#ffffff" stop-opacity="0"/></linearGradient><linearGradient x1="293.33943" y1="118.85239" x2="293.33943" y2="127.21315" gradientUnits="userSpaceOnUse" id="color-15"><stop offset="0" stop-color="#ffffff"/><stop offset="0.521" stop-color="#ffffff" stop-opacity="0"/></linearGradient><linearGradient x1="187.47259" y1="128.65939" x2="180.1124" y2="121.29891" gradientUnits="userSpaceOnUse" id="color-16"><stop offset="0" stop-color="#ffffff" stop-opacity="0"/><stop offset="1" stop-color="#000000"/></linearGradient><linearGradient x1="293.19765" y1="128.82005" x2="300.36842" y2="121.64928" gradientUnits="userSpaceOnUse" id="color-17"><stop offset="0" stop-color="#ffffff" stop-opacity="0"/><stop offset="1" stop-color="#000000"/></linearGradient><linearGradient x1="185.73205" y1="233.27523" x2="179.64233" y2="238.82834" gradientUnits="userSpaceOnUse" id="color-18"><stop offset="0" stop-color="#ffffff" stop-opacity="0"/><stop offset="1" stop-color="#ffffff"/></linearGradient><linearGradient x1="300.86493" y1="239.07064" x2="295.38444" y2="233.59016" gradientUnits="userSpaceOnUse" id="color-19"><stop offset="0" stop-color="#ffffff"/><stop offset="1" stop-color="#ffffff" stop-opacity="0"/></linearGradient><linearGradient x1="289.33075" y1="126.02548" x2="300.22839" y2="126.02548" gradientUnits="userSpaceOnUse" id="color-20"><stop offset="0.012" stop-color="#ffffff" stop-opacity="0.3"/><stop offset="0.315" stop-color="#ffffff"/><stop offset="0.679" stop-color="#ffffff"/><stop offset="1" stop-color="#ffffff" stop-opacity="0.3"/></linearGradient><linearGradient x1="294.77986" y1="130.64397" x2="294.77986" y2="121.35382" gradientUnits="userSpaceOnUse" id="color-21"><stop offset="0" stop-color="#7b7d80"/><stop offset="1" stop-color="#19191a"/></linearGradient><radialGradient cx="294.58913" cy="123.7259" r="5.4523" gradientUnits="userSpaceOnUse" id="color-22"><stop offset="0.291" stop-color="#cdcdcd"/><stop offset="0.521" stop-color="#555556"/><stop offset="0.6" stop-color="#616162"/><stop offset="1" stop-color="#abacab"/></radialGradient><linearGradient x1="289.32581" y1="233.67906" x2="300.22839" y2="233.67906" gradientUnits="userSpaceOnUse" id="color-23"><stop offset="0.012" stop-color="#ffffff" stop-opacity="0.3"/><stop offset="0.315" stop-color="#ffffff"/><stop offset="0.679" stop-color="#ffffff"/><stop offset="1" stop-color="#ffffff" stop-opacity="0.3"/></linearGradient><linearGradient x1="294.77754" y1="238.29726" x2="294.77754" y2="229.00449" gradientUnits="userSpaceOnUse" id="color-24"><stop offset="0" stop-color="#4a4b4d"/><stop offset="1" stop-color="#19191a"/></linearGradient><radialGradient cx="294.58657" cy="231.37832" r="5.4523" gradientUnits="userSpaceOnUse" id="color-25"><stop offset="0.291" stop-color="#cdcdcd"/><stop offset="0.521" stop-color="#555556"/><stop offset="0.6" stop-color="#616162"/><stop offset="1" stop-color="#abacab"/></radialGradient><linearGradient x1="180.19171" y1="126.02548" x2="191.08906" y2="126.02548" gradientUnits="userSpaceOnUse" id="color-26"><stop offset="0.012" stop-color="#ffffff" stop-opacity="0.3"/><stop offset="0.315" stop-color="#ffffff"/><stop offset="0.679" stop-color="#ffffff"/><stop offset="1" stop-color="#ffffff" stop-opacity="0.3"/></linearGradient><linearGradient x1="185.64053" y1="130.64397" x2="185.64053" y2="121.35382" gradientUnits="userSpaceOnUse" id="color-27"><stop offset="0" stop-color="#7b7d80"/><stop offset="1" stop-color="#19191a"/></linearGradient><radialGradient cx="185.44944" cy="123.72621" r="5.4523" gradientUnits="userSpaceOnUse" id="color-28"><stop offset="0.291" stop-color="#cdcdcd"/><stop offset="0.521" stop-color="#555556"/><stop offset="0.6" stop-color="#616162"/><stop offset="1" stop-color="#abacab"/></radialGradient><linearGradient x1="180.19171" y1="233.67906" x2="191.094" y2="233.67906" gradientUnits="userSpaceOnUse" id="color-29"><stop offset="0.012" stop-color="#ffffff" stop-opacity="0.3"/><stop offset="0.315" stop-color="#ffffff"/><stop offset="0.679" stop-color="#ffffff"/><stop offset="1" stop-color="#ffffff" stop-opacity="0.3"/></linearGradient><linearGradient x1="185.64315" y1="238.29726" x2="185.64315" y2="229.00449" gradientUnits="userSpaceOnUse" id="color-30"><stop offset="0" stop-color="#4a4b4d"/><stop offset="1" stop-color="#19191a"/></linearGradient><radialGradient cx="185.45185" cy="231.37862" r="5.45259" gradientUnits="userSpaceOnUse" id="color-31"><stop offset="0.291" stop-color="#cdcdcd"/><stop offset="0.521" stop-color="#555556"/><stop offset="0.6" stop-color="#616162"/><stop offset="1" stop-color="#abacab"/></radialGradient><linearGradient x1="187.5336" y1="241.94307" x2="187.5336" y2="233.58231" gradientUnits="userSpaceOnUse" id="color-32"><stop offset="0" stop-color="#4d4d4d"/><stop offset="1" stop-color="#ffffff" stop-opacity="0"/></linearGradient><linearGradient x1="293.33827" y1="243.27194" x2="293.33827" y2="231.9237" gradientUnits="userSpaceOnUse" id="color-33"><stop offset="0" stop-color="#4d4d4d"/><stop offset="1" stop-color="#ffffff" stop-opacity="0"/></linearGradient><radialGradient cx="239.45991" cy="177.35621" r="26.44194" gradientUnits="userSpaceOnUse" id="color-34"><stop offset="0.564" stop-color="#331a00" stop-opacity="0"/><stop offset="0.679" stop-color="#331a00"/><stop offset="0.861" stop-color="#523619" stop-opacity="0.5"/><stop offset="1" stop-color="#806040" stop-opacity="0"/></radialGradient><radialGradient cx="240.00116" cy="179.95933" r="59.8109" gradientUnits="userSpaceOnUse" id="color-35"><stop offset="0" stop-color="#000000"/><stop offset="0.976" stop-color="#15161a"/><stop offset="1" stop-color="#141519" stop-opacity="0"/></radialGradient><linearGradient x1="240.00058" y1="123.1269" x2="240.00058" y2="170.82431" gradientUnits="userSpaceOnUse" id="color-36"><stop offset="0" stop-color="#ffffff" stop-opacity="0.7"/><stop offset="0.248" stop-color="#ffffff" stop-opacity="0.4"/><stop offset="1" stop-color="#000000" stop-opacity="0"/></linearGradient><linearGradient x1="239.99826" y1="232.84438" x2="239.99826" y2="185.14725" gradientUnits="userSpaceOnUse" id="color-37"><stop offset="0" stop-color="#ffffff" stop-opacity="0.7"/><stop offset="0.248" stop-color="#ffffff" stop-opacity="0.4"/><stop offset="1" stop-color="#000000" stop-opacity="0"/></linearGradient><linearGradient x1="240.00116" y1="132.19044" x2="240.00116" y2="228.53791" gradientUnits="userSpaceOnUse" id="color-38"><stop offset="0" stop-color="#222626"/><stop offset="0.848" stop-color="#17191a"/><stop offset="1" stop-color="#4f5256"/></linearGradient><radialGradient cx="239.59878" cy="175.14294" r="30.40821" gradientUnits="userSpaceOnUse" id="color-39"><stop offset="0.382" stop-color="#303033"/><stop offset="0.939" stop-color="#0c0c0d"/></radialGradient><radialGradient cx="239.99913" cy="179.95613" r="21.62008" gradientUnits="userSpaceOnUse" id="color-40"><stop offset="0" stop-color="#000000"/><stop offset="0.97" stop-color="#15161a"/><stop offset="1" stop-color="#141519" stop-opacity="0.5"/></radialGradient><linearGradient x1="240" y1="159.47288" x2="240" y2="176.83007" gradientUnits="userSpaceOnUse" id="color-41"><stop offset="0" stop-color="#ffffff" stop-opacity="0.7"/><stop offset="0.248" stop-color="#ffffff" stop-opacity="0.4"/><stop offset="1" stop-color="#000000" stop-opacity="0"/></linearGradient><linearGradient x1="240" y1="200.40655" x2="240" y2="183.04965" gradientUnits="userSpaceOnUse" id="color-42"><stop offset="0" stop-color="#ffffff" stop-opacity="0.7"/><stop offset="0.248" stop-color="#ffffff" stop-opacity="0.4"/><stop offset="1" stop-color="#000000" stop-opacity="0"/></linearGradient><linearGradient x1="239.99884" y1="180.52876" x2="239.99884" y2="200.62096" gradientUnits="userSpaceOnUse" id="color-43"><stop offset="0" stop-color="#000000" stop-opacity="0"/><stop offset="1" stop-color="#ffffff" stop-opacity="0.4"/></linearGradient><radialGradient cx="239.76845" cy="179.90819" r="17.98153" gradientUnits="userSpaceOnUse" id="color-44"><stop offset="0.891" stop-color="#2e2e31" stop-opacity="0"/><stop offset="1" stop-color="#0c0c0d"/></radialGradient><radialGradient cx="230.77943" cy="176.07884" r="4.77382" gradientUnits="userSpaceOnUse" id="color-45"><stop offset="0.2" stop-color="#000000" stop-opacity="0.5"/><stop offset="1" stop-color="#ffffff" stop-opacity="0"/></radialGradient><radialGradient cx="248.03009" cy="171.75911" r="7.07933" gradientUnits="userSpaceOnUse" id="color-46"><stop offset="0.206" stop-color="#ffffff" stop-opacity="0.6"/><stop offset="0.612" stop-color="#dddddd" stop-opacity="0.405"/><stop offset="1" stop-color="#ffffff" stop-opacity="0"/></radialGradient><linearGradient x1="243.76173" y1="137.67906" x2="240.24172" y2="179.16474" gradientUnits="userSpaceOnUse" id="color-47"><stop offset="0" stop-color="#807366" stop-opacity="0"/><stop offset="0.709" stop-color="#807366" stop-opacity="0.8"/><stop offset="0.921" stop-color="#807366" stop-opacity="0.5"/><stop offset="1" stop-color="#807366" stop-opacity="0"/></linearGradient></defs><g transform="translate(-150.17042,-90.17042)"><g data-paper-data="{&quot;isPaintingLayer&quot;:true}" fill-rule="nonzero" stroke="none" stroke-linecap="butt" stroke-linejoin="miter" stroke-miterlimit="10" stroke-dasharray="" stroke-dashoffset="0" style="mix-blend-mode: normal"><path d="M292.54078,234.67556c0,10.87904 -23.43093,19.69912 -52.33363,19.69912c-28.90386,0 -52.33421,-8.82037 -52.33421,-19.69912c0,-10.88136 23.43035,-19.70145 52.33421,-19.70145c28.90241,0 52.33363,8.82037 52.33363,19.70145z" fill="url(#color-1)" stroke-width="1"/><path d="M240.00087,108.01431c-39.33172,0 -71.27332,31.57176 -71.91422,70.75066c-0.00668,-0.39889 -0.03021,-0.79546 -0.02905,-1.19435c0,-39.73409 32.21121,-71.9453 71.94298,-71.9453c39.72712,0 71.94298,32.21121 71.94298,71.94763c0,0.39657 -0.02324,0.79314 -0.03051,1.19435c-0.64148,-39.18151 -32.58396,-70.75299 -71.91248,-70.75299z" fill="url(#color-2)" stroke-width="1"/><path d="M300.97242,119.28382c2.15076,2.14844 3.00462,5.07142 2.65221,7.87093c-0.25421,-2.00405 -1.11242,-3.94244 -2.65221,-5.48223c-3.68561,-3.68329 -9.65999,-3.68561 -13.34561,0l-4.26463,3.63216l1.57233,-3.3335l2.69231,-2.68737c3.6859,-3.6859 9.65999,-3.68358 13.3459,0z" fill="url(#color-3)" stroke-width="1"/><path d="M195.1785,121.29455l1.87796,3.62286l-0.3219,0.3219l-3.56679,-3.56679c-3.6859,-3.68561 -9.66261,-3.68329 -13.34938,0.00232c-1.5363,1.53746 -2.39597,3.47585 -2.64902,5.47758c-0.35444,-2.79719 0.50174,-5.72017 2.65018,-7.86861c3.68561,-3.68358 9.66232,-3.6859 13.34822,0l2.01073,2.01102z" fill="url(#color-4)" stroke-width="1"/><path d="M283.14313,232.90393c-0.09587,-0.09558 -0.16124,-0.20773 -0.24956,-0.31028l13.28954,-13.2875c0.0982,0.08861 0.2147,0.15863 0.30796,0.25189l4.48166,4.48137c2.15047,2.14815 3.00665,5.0691 2.6496,7.86832c-0.25189,-2.00376 -1.11271,-3.94215 -2.64989,-5.48194l-4.48107,-4.47904c-0.09355,-0.09558 -0.21005,-0.16328 -0.30796,-0.25189l-12.12365,12.12569z" fill="url(#color-5)" stroke-width="1"/><path d="M196.96321,233.81822l-12.12365,-12.12365c-0.09878,0.0889 -0.21557,0.15659 -0.30883,0.25218l-4.48369,4.47904c-1.53717,1.53979 -2.39481,3.47818 -2.64902,5.48194c-0.3556,-2.79922 0.50058,-5.72017 2.64902,-7.86832l4.48369,-4.48137c0.09297,-0.0982 0.20976,-0.16328 0.30912,-0.25189l13.2875,13.2875c-0.08658,0.10256 -0.15282,0.2147 -0.2484,0.31028z" fill="url(#color-6)" stroke-width="1"/><path d="M311.2248,179.96165c0,39.33026 -31.89105,71.21957 -71.22422,71.21957c-39.33433,0 -71.22306,-31.88931 -71.22451,-71.21957c0.00145,-39.33753 31.89047,-71.22654 71.22451,-71.22654c39.33317,0 71.22422,31.88902 71.22422,71.22654z" fill="url(#color-7)" stroke-width="1"/><path d="M311.94356,179.96194c0,39.72886 -32.21354,71.93746 -71.94298,71.94008c-39.73177,-0.00261 -71.94298,-32.21092 -71.94414,-71.94037c0.00116,-39.73671 32.21237,-71.94734 71.94414,-71.94734c39.72945,0 71.94298,32.21092 71.94298,71.94763z" fill="url(#color-8)" stroke-width="1"/><path d="M296.49135,221.94674l4.48137,4.47904c3.68794,3.68823 3.68794,9.66232 0.00232,13.34822c-3.6859,3.6859 -9.66464,3.6859 -13.34793,0l-4.48369,-4.48369c-0.09587,-0.09326 -0.16124,-0.20744 -0.24753,-0.30563l0.00959,-0.01162c-11.83894,9.24716 -26.72172,14.77122 -42.90693,14.77122c-15.94698,0 -30.63888,-5.36311 -42.39357,-14.37l-4.40089,4.39973c-3.68561,3.6859 -9.66145,3.6859 -13.34822,0c-3.68329,-3.6862 -3.68561,-9.66232 0.00232,-13.34619l4.43924,-4.43924c-8.83635,-11.69164 -14.0818,-26.24816 -14.0818,-42.02896c0,-15.55273 5.09263,-29.91344 13.69598,-41.51909l-4.05342,-4.05197c-3.68678,-3.6859 -3.68678,-9.65999 -0.00261,-13.34822c3.68707,-3.68329 9.66261,-3.68561 13.34822,0l3.89683,3.89828c11.83691,-9.24251 26.71998,-14.76454 42.89996,-14.76454c16.39003,-0.00203 31.45265,5.66671 43.36131,15.1306l4.26492,-4.26434c3.68561,-3.68561 9.66203,-3.68097 13.34793,0c3.68358,3.6859 3.68358,9.66232 -0.00232,13.34822l-4.48137,4.48107c-0.01859,0.01888 -0.04184,0.03283 -0.06275,0.04939c8.39301,11.51936 13.3549,25.69762 13.35723,41.04262c-0.00232,16.17533 -5.52174,31.05375 -14.75931,42.89037l1.15687,-1.15717c0.0982,0.08861 0.2147,0.15601 0.30796,0.25189z" fill="url(#color-9)" stroke-width="1"/><path d="M296.49135,221.94674l4.48137,4.47904c3.68794,3.68823 3.68794,9.66232 0.00232,13.34822c-3.6859,3.6859 -9.66464,3.6859 -13.34793,0l-4.48369,-4.48369c-0.09587,-0.09326 -0.16124,-0.20744 -0.24753,-0.30563l0.00959,-0.01162c-11.83894,9.24716 -26.72172,14.77122 -42.90693,14.77122c-15.94698,0 -30.63888,-5.36311 -42.39357,-14.37l-4.40089,4.39973c-3.68561,3.6859 -9.66145,3.6859 -13.34822,0c-3.68329,-3.6862 -3.68561,-9.66232 0.00232,-13.34619l4.43924,-4.43924c-8.83635,-11.69164 -14.0818,-26.24816 -14.0818,-42.02896c0,-15.55273 5.09263,-29.91344 13.69598,-41.51909l-4.05342,-4.05197c-3.68678,-3.6859 -3.68678,-9.65999 -0.00261,-13.34822c3.68707,-3.68329 9.66261,-3.68561 13.34822,0l3.89683,3.89828c11.83691,-9.24251 26.71998,-14.76454 42.89996,-14.76454c16.39003,-0.00203 31.45265,5.66671 43.36131,15.1306l4.26492,-4.26434c3.68561,-3.68561 9.66203,-3.68097 13.34793,0c3.68358,3.6859 3.68358,9.66232 -0.00232,13.34822l-4.48137,4.48107c-0.01859,0.01888 -0.04184,0.03283 -0.06275,0.04939c8.39301,11.51936 13.3549,25.69762 13.35723,41.04262c-0.00232,16.17533 -5.52174,31.05375 -14.75931,42.89037l1.15687,-1.15717c0.0982,0.08861 0.2147,0.15601 0.30796,0.25189z" fill="url(#color-10)" stroke-width="1" opacity="0.5"/><path d="M301.89397,179.96165c0,34.17982 -27.71125,61.8931 -61.89339,61.8931c-34.18446,0 -61.89339,-27.71329 -61.89455,-61.89543c0,-34.18214 27.70864,-61.89572 61.89455,-61.89572c34.18214,0 61.89078,27.71358 61.89339,61.89804z" fill="url(#color-11)" stroke-width="1"/><path d="M301.89397,179.96165c0,34.17982 -27.71125,61.8931 -61.89339,61.8931c-34.18446,0 -61.89339,-27.71329 -61.89455,-61.89543c0,-34.18214 27.70864,-61.89572 61.89455,-61.89572c34.18214,0 61.89078,27.71358 61.89339,61.89804zM298.79609,179.95962c0.00232,-32.47501 -26.32341,-58.80248 -58.79551,-58.80248c-32.47704,0 -58.80016,26.33009 -58.80016,58.80248c0.00116,32.47414 26.32428,58.79958 58.80016,58.79958c32.4721,0 58.79551,-26.32777 58.79551,-58.79958z" fill="url(#color-12)" stroke-width="1"/><path d="M304.36896,179.96165c0,35.54674 -28.81932,64.36809 -64.36838,64.36577c-35.55284,0.00232 -64.37071,-28.81932 -64.37071,-64.36809c0,-35.54907 28.81787,-64.37303 64.37071,-64.37303c35.54907,0 64.36606,28.82368 64.36838,64.37536zM301.89397,179.96165c-0.00261,-34.18446 -27.71125,-61.89804 -61.89339,-61.89804c-34.18592,0 -61.89455,27.71358 -61.89455,61.89572c0.00116,34.18214 27.71009,61.89543 61.89455,61.89543c34.18214,0 61.89339,-27.71329 61.89339,-61.8931z" fill="url(#color-13)" stroke-width="1" opacity="0.8"/><path d="M177.1531,128.35579c-0.17722,-2.622 0.69639,-5.30675 2.70247,-7.31545c3.68707,-3.68329 9.66261,-3.68561 13.34822,0l4.48369,4.48369c0.09558,0.09791 0.16124,0.20976 0.2484,0.30796l-0.61243,0.61359l-4.12082,-4.11763c-3.68561,-3.68561 -9.65999,-3.68561 -13.34793,0c-1.67634,1.67953 -2.54995,3.83524 -2.7016,6.02784z" fill="url(#color-14)" stroke-width="1"/><path d="M301.01455,122.32795c-3.68358,-3.68561 -9.65999,-3.68561 -13.3459,0l-4.11966,4.11763l-0.61127,-0.61359c0.08396,-0.10023 0.14933,-0.21208 0.24753,-0.30796l4.48078,-4.48369c3.6862,-3.68561 9.6629,-3.68561 13.34851,0c2.00841,2.0087 2.88289,4.69345 2.70335,7.31545c-0.15136,-2.1926 -1.02381,-4.3483 -2.70335,-6.02784z" fill="url(#color-15)" stroke-width="1"/><path d="M180.07376,133.20699c-2.99068,-3.33582 -2.91281,-8.44821 0.29169,-11.65649c3.20683,-3.20363 8.31922,-3.28149 11.65329,-0.29169c-2.24983,1.15252 -4.62692,2.88463 -6.84189,5.0996c-2.2173,2.2173 -3.95057,4.59409 -5.10309,6.84857z" fill="url(#color-16)" stroke-width="1"/><path d="M295.65405,126.35842c-2.21497,-2.21265 -4.59351,-3.94912 -6.84189,-5.09728c3.33408,-2.98951 8.44414,-2.91398 11.65242,0.28936c3.20334,3.20828 3.28149,8.31863 0.28965,11.65678c-1.1531,-2.25477 -2.88289,-4.63157 -5.10019,-6.84886z" fill="url(#color-17)" stroke-width="1"/><path d="M185.17685,233.85918c2.21497,2.2173 4.59206,3.95145 6.84189,5.10164c-3.33466,2.98951 -8.4453,2.91252 -11.65329,-0.29372c-3.2045,-3.20886 -3.2812,-8.31776 -0.29053,-11.65242c1.15019,2.25158 2.88347,4.62721 5.10164,6.8445z" fill="url(#color-18)" stroke-width="1" opacity="0.8"/><path d="M300.75424,227.01468c2.99358,3.33466 2.91398,8.44705 -0.29053,11.65242c-3.20741,3.20625 -8.31747,3.28324 -11.65387,0.29372c2.25071,-1.15223 4.6275,-2.88434 6.84421,-5.10164c2.21671,-2.2173 3.94883,-4.59293 5.10019,-6.8445z" fill="url(#color-19)" stroke-width="1" opacity="0.8"/><path d="M300.22839,126.0278c0,3.01043 -2.43664,5.44766 -5.4494,5.44766c-3.0084,0 -5.44824,-2.43955 -5.44824,-5.44736c0,-3.01305 2.43751,-5.45259 5.44824,-5.45259c3.01276,0 5.45143,2.43955 5.4494,5.4523z" fill="url(#color-20)" stroke-width="1" opacity="0.8"/><path d="M299.58691,126.02548c-0.00232,2.65541 -2.15338,4.8085 -4.80821,4.8085c-2.65279,0 -4.80588,-2.15309 -4.80588,-4.80617c0,-2.65541 2.1528,-4.8053 4.80617,-4.80792c2.65454,-0.00291 4.80792,2.1528 4.80792,4.80559z" fill="url(#color-21)" stroke-width="1" opacity="0.8"/><path d="M298.74467,126.02548c-0.00261,2.19057 -1.77511,3.96336 -3.96568,3.96336c-2.18795,0 -3.96365,-1.77279 -3.96365,-3.96103c-0.00232,-2.18824 1.7757,-3.96568 3.96365,-3.96568c2.19057,0 3.96568,1.77511 3.96568,3.96336z" fill="url(#color-22)" stroke-width="1"/><path d="M297.14445,123.66931c0.17722,0.17751 0.17722,0.46658 0,0.64642l-1.71701,1.71207l1.71469,1.71236c0.17925,0.17722 0.17925,0.46658 0.00203,0.64381c-0.17955,0.17955 -0.47123,0.17955 -0.64845,0l-1.71236,-1.71236l-1.71207,1.71236c-0.17751,0.18187 -0.46658,0.18187 -0.64381,0.00465c-0.17976,-0.17803 -0.18184,-0.46786 -0.00465,-0.64845l1.71701,-1.71236l-1.71701,-1.71439c-0.17744,-0.17894 -0.17744,-0.46748 0,-0.64642c0.17977,-0.17736 0.46869,-0.17736 0.64845,0l1.71207,1.71701l1.71498,-1.71469c0.17955,-0.17955 0.46891,-0.17751 0.64613,0z" fill="#000000" stroke-width="1"/><path d="M300.22839,233.67848c0,3.01043 -2.43897,5.45027 -5.45172,5.45027c-3.0084,0 -5.44824,-2.43984 -5.45085,-5.45027c0,-3.01072 2.44245,-5.4494 5.45085,-5.4494c3.01276,0 5.45172,2.43868 5.45172,5.4494z" fill="url(#color-23)" stroke-width="1" opacity="0.8"/><path d="M299.58458,233.67848c0,2.65337 -2.15309,4.8053 -4.80792,4.80879c-2.65308,-0.0032 -4.80617,-2.15541 -4.80617,-4.81111c0,-2.65018 2.15309,-4.80559 4.80617,-4.80559c2.65483,0 4.8053,2.15541 4.80792,4.80792z" fill="url(#color-24)" stroke-width="1" opacity="0.8"/><path d="M298.74206,233.67848c0,2.18563 -1.77511,3.96307 -3.96539,3.96307c-2.18824,0 -3.96568,-1.77511 -3.96365,-3.96568c0,-2.18795 1.77511,-3.96103 3.96365,-3.96103c2.19028,0 3.96336,1.77511 3.96568,3.96365z" fill="url(#color-25)" stroke-width="1"/><path d="M297.14213,231.31998c0.17725,0.17891 0.17725,0.46722 0,0.64613l-1.71469,1.71469l1.71236,1.71207c0.17955,0.17722 0.17955,0.46688 0.00232,0.6441c-0.17984,0.17722 -0.4692,0.17722 -0.64874,0l-1.71207,-1.71265l-1.71236,1.71265c-0.17722,0.18187 -0.46658,0.18187 -0.64381,0c-0.18216,-0.17722 -0.17955,-0.46688 -0.00232,-0.6441l1.71469,-1.71207l-1.71469,-1.71701c-0.08573,-0.08566 -0.13389,-0.20188 -0.13389,-0.32307c0,-0.12119 0.04817,-0.23741 0.13389,-0.32307c0.17993,-0.17566 0.46747,-0.17463 0.64613,0.00232l1.71236,1.71207l1.71439,-1.71207c0.17894,-0.17744 0.46748,-0.17744 0.64642,0z" fill="#000000" stroke-width="1"/><path d="M191.08906,126.0278c0,3.01043 -2.43635,5.44766 -5.44911,5.44766c-3.00811,0 -5.44824,-2.43955 -5.44824,-5.44736c0,-3.01305 2.43751,-5.45259 5.44824,-5.45259c3.01276,0 5.45143,2.43955 5.44911,5.4523z" fill="url(#color-26)" stroke-width="1" opacity="0.8"/><path d="M190.44787,126.02548c-0.00261,2.65541 -2.15338,4.8085 -4.80821,4.8085c-2.65279,0 -4.80588,-2.15309 -4.80588,-4.80617c0,-2.65541 2.1528,-4.8053 4.80617,-4.80792c2.65454,-0.00291 4.80763,2.1528 4.80763,4.80559z" fill="url(#color-27)" stroke-width="1" opacity="0.8"/><path d="M189.60534,126.02548c-0.00203,2.19057 -1.77511,3.96336 -3.96568,3.96336c-2.18795,0 -3.96307,-1.77279 -3.96307,-3.96103c-0.00261,-2.18824 1.77511,-3.96568 3.96336,-3.96568c2.19057,0 3.96568,1.77511 3.96568,3.96336z" fill="url(#color-28)" stroke-width="1"/><path d="M187.6822,123.5354c0.12123,0 0.2375,0.04817 0.32321,0.13392c0.17744,0.17894 0.17744,0.46748 0,0.64642l-1.71701,1.71207l1.71439,1.71236c0.17984,0.17722 0.17984,0.46658 0.00261,0.64381c-0.17984,0.17955 -0.47152,0.17955 -0.64874,0l-1.71207,-1.71236l-1.71236,1.71236c-0.17722,0.18187 -0.46658,0.18187 -0.64381,0.00465c-0.17976,-0.17803 -0.18184,-0.46786 -0.00465,-0.64845l1.71701,-1.71236l-1.71701,-1.71439c-0.17744,-0.17894 -0.17744,-0.46748 0,-0.64642c0.17983,-0.17721 0.46862,-0.17721 0.64845,0l1.71236,1.71701l1.71439,-1.71469c0.08571,-0.08574 0.20198,-0.13392 0.32321,-0.13392z" fill="#000000" stroke-width="1"/><path d="M191.094,233.67848c0,3.01043 -2.43897,5.45027 -5.45201,5.45027c-3.00811,0 -5.44795,-2.43984 -5.45027,-5.45027c0,-3.01072 2.44216,-5.4494 5.45027,-5.4494c3.01276,0 5.45201,2.43868 5.45201,5.4494z" fill="url(#color-29)" stroke-width="1" opacity="0.8"/><path d="M190.4499,233.67848c0,2.65337 -2.1528,4.8053 -4.80792,4.80879c-2.6525,-0.0032 -4.80588,-2.15541 -4.80588,-4.81111c0,-2.65018 2.15309,-4.80559 4.80588,-4.80559c2.65483,0 4.80559,2.15541 4.80821,4.80792z" fill="url(#color-30)" stroke-width="1" opacity="0.8"/><path d="M189.60796,233.67848c0,2.18563 -1.77511,3.96307 -3.96568,3.96307c-2.18824,0 -3.96568,-1.77511 -3.96365,-3.96568c0,-2.18795 1.77541,-3.96103 3.96336,-3.96103c2.19057,0 3.96365,1.77511 3.96568,3.96365z" fill="url(#color-31)" stroke-width="1"/><path d="M188.00774,231.31998c0.17725,0.17891 0.17725,0.46722 0,0.64613l-1.71469,1.71469l1.71236,1.71207c0.17955,0.17722 0.17955,0.46688 0.00232,0.6441c-0.17984,0.17722 -0.46891,0.17722 -0.64874,0l-1.71207,-1.71265l-1.71236,1.71265c-0.17722,0.18187 -0.46658,0.18187 -0.64381,0c-0.18187,-0.17722 -0.17955,-0.46688 -0.00232,-0.6441l1.71469,-1.71207l-1.71469,-1.71701c-0.17836,-0.17845 -0.17836,-0.46768 0,-0.64613c0.17999,-0.17551 0.4674,-0.17447 0.64613,0.00232l1.71236,1.71207l1.71439,-1.71207c0.17894,-0.17744 0.46748,-0.17744 0.64642,0zM296.20896,130.04956c0.17786,0.17742 0.17877,0.46526 0.00203,0.64381" fill="#000000" stroke-width="1"/><path d="M179.8547,238.46983c3.68794,3.68358 9.66232,3.68561 13.34793,0l4.12082,-4.11734l0.61243,0.61127c-0.08716,0.10023 -0.15282,0.21237 -0.24724,0.31028l-4.48485,4.48137c-3.68561,3.68561 -9.65999,3.68561 -13.34909,0c-2.00637,-2.00637 -2.87911,-4.69142 -2.70044,-7.31574c0.15049,2.19725 1.0241,4.35295 2.70044,6.03016z" fill="url(#color-32)" stroke-width="1"/><path d="M303.71586,232.43967c0.17955,2.62432 -0.6929,5.30936 -2.70131,7.31574c-3.68358,3.68561 -9.66232,3.68561 -13.3459,0l-4.4834,-4.48369c-0.09616,-0.09326 -0.16124,-0.20773 -0.24753,-0.30796l0.61098,-0.61127l4.11734,4.11734c3.68852,3.68823 9.66261,3.68561 13.34851,0c1.67953,-1.67953 2.55198,-3.83494 2.70131,-6.03016z" fill="url(#color-33)" stroke-width="1"/><path d="M265.90127,177.35447c0,14.60329 -11.83691,26.44456 -26.4402,26.44456c-14.60475,0 -26.44136,-11.84126 -26.44252,-26.44456c0.00116,-14.60184 11.83778,-26.44107 26.44078,-26.44107c14.60504,0 26.44194,11.83952 26.44194,26.44078z" fill="url(#color-34)" stroke-width="1" opacity="0.6"/><path d="M299.81293,179.96165c-0.00232,33.02701 -26.78244,59.8077 -59.81235,59.8077c-33.03456,0 -59.81264,-26.7807 -59.81119,-59.8077c-0.00145,-33.03224 26.77663,-59.81235 59.81119,-59.81235c33.02933,0 59.81003,26.78012 59.81235,59.81235zM287.85052,179.957c0,-26.42567 -21.42659,-47.84529 -47.84994,-47.84529c-26.42567,0 -47.84907,21.41962 -47.84907,47.84529c0,26.42567 21.4234,47.84994 47.84674,47.84733c26.42596,0.00232 47.85226,-21.42165 47.85226,-47.84733z" fill="url(#color-35)" stroke-width="1"/><path d="M184.7091,169.2729c5.8541,-26.4771 28.35709,-46.21689 55.29148,-46.21689c26.93439,0 49.43854,19.74212 55.29148,46.21689c-7.39011,-24.74149 -29.34866,-44.10361 -55.29148,-44.10593c-25.94253,0.00232 -47.9002,19.36444 -55.29148,44.10593z" fill="url(#color-36)" stroke-width="1" opacity="0.5"/><path d="M239.99826,230.79965c24.6433,0 45.51033,-19.36444 52.5248,-44.10099c-5.55893,26.47216 -26.93671,46.21689 -52.52247,46.21689c-25.58838,-0.00232 -46.96471,-19.74474 -52.52712,-46.21689c7.02289,24.73888 27.88353,44.10332 52.5248,44.10099z" fill="url(#color-37)" stroke-width="1" opacity="0.4"/><path d="M288.32902,179.957c0,26.42567 -21.90509,48.32553 -48.33076,48.32553c-26.42335,0 -48.32466,-21.89986 -48.32466,-48.32524c0,-26.42596 21.90131,-48.32611 48.32698,-48.32611c26.42335,0 48.32844,21.90015 48.32844,48.32582zM240.00058,224.45689c24.57357,-0.00232 44.49988,-19.9266 44.49988,-44.49988c0.00261,-24.57589 -19.92428,-44.49785 -44.49988,-44.49785c-24.57822,0 -44.49901,19.92225 -44.49901,44.49785c0,24.5756 19.92341,44.49959 44.49901,44.49959z" fill="url(#color-38)" stroke-width="1"/><path d="M257.29444,179.957c0,9.55366 -7.74339,17.29386 -17.29444,17.29618c-9.55105,0 -17.29473,-7.74252 -17.29473,-17.29618c0,-9.55134 7.74368,-17.29444 17.29473,-17.29444c9.55337,0 17.29211,7.7431 17.29444,17.29444z" fill="url(#color-39)" stroke-width="1"/><path d="M261.62008,179.957c0,11.94004 -9.68033,21.62212 -21.62182,21.61892c-11.94033,0.00116 -21.61834,-9.67888 -21.62008,-21.61892c0.00174,-11.94004 9.6783,-21.62037 21.62182,-21.62037c11.93975,0 21.62008,9.68004 21.62008,21.62037zM257.29444,179.957c-0.00232,-9.55134 -7.74107,-17.29444 -17.29444,-17.29444c-9.55105,0 -17.29473,7.7431 -17.29473,17.29444c0,9.55366 7.74368,17.29618 17.29473,17.29618c9.55105,-0.00232 17.29444,-7.74252 17.29444,-17.29618z" fill="url(#color-40)" stroke-width="1"/><path d="M220.46473,176.26558c2.06913,-9.35756 10.01763,-16.81856 19.53527,-16.81856c9.51793,0 17.46614,7.461 19.53527,16.81856c-2.6127,-8.74513 -10.36684,-15.58498 -19.53527,-15.58498c-9.16842,0 -16.92256,6.83986 -19.53527,15.58498z" fill="url(#color-41)" stroke-width="1" opacity="0.3"/><path d="M240,199.2c9.16842,0 16.92256,-6.83986 19.53527,-15.58556c-2.06913,9.35349 -10.01734,16.81856 -19.53527,16.81856c-9.51764,0 -17.46614,-7.46507 -19.53527,-16.81856c2.6127,8.74571 10.36684,15.58556 19.53527,15.58556z" fill="url(#color-42)" stroke-width="1" opacity="0.25"/><path d="M258.15411,179.95729c0.00261,10.03041 -8.12311,18.15788 -18.15585,18.15788c-10.02896,0.00232 -18.15498,-8.12747 -18.15498,-18.15643c0,-0.66589 4.5816,11.1135 18.15672,11.1135c13.39209,0 18.15701,-11.77938 18.15411,-11.11495z" fill="url(#color-43)" stroke-width="1" opacity="0.8"/><path d="M258.15411,179.957c0.00291,10.0307 -8.12311,18.15788 -18.15585,18.15788c-10.02896,0.00291 -18.15498,-8.12718 -18.15498,-18.15614c0,-10.0307 8.12398,-18.16195 18.15672,-18.16195c10.03099,0.00174 18.15672,8.13124 18.15411,18.16021z" fill="url(#color-44)" stroke-width="1"/><path d="M234.16798,178.03662c-1.51916,2.62926 -4.26609,3.88782 -6.13795,2.80648c-1.87215,-1.08018 -2.15919,-4.09061 -0.64032,-6.7219c1.51945,-2.62926 4.26841,-3.88724 6.14201,-2.80503c1.86808,1.07872 2.1589,4.08915 0.63625,6.72045z" fill="url(#color-45)" stroke-width="1" opacity="0.7"/><path d="M240.81725,170.20782c1.48778,-2.12404 5.11733,-2.15193 8.10335,-0.05956c2.98428,2.09034 4.20101,5.50896 2.71351,7.63212c-1.48691,2.12404 -5.11355,2.15396 -8.1019,0.06392c-2.98574,-2.09208 -4.19985,-5.51302 -2.71497,-7.63648z" fill="url(#color-46)" stroke-width="1"/><path d="M195.26247,181.51509c-0.01046,-0.40354 -0.06188,-0.79778 -0.06188,-1.19871c0,-24.9376 20.15176,-45.15357 45.00511,-45.15357c24.85596,0 45.00395,20.21597 45.00395,45.15357c0,0.40093 -0.05346,0.79749 -0.05811,1.19871z" fill="url(#color-47)" stroke-width="1" opacity="0.5"/><path d="M150.17042,269.82958v-179.65916h179.65916v179.65916z" fill="none" stroke-width="0"/></g></g></svg>