<svg version="1.1" xmlns="http://www.w3.org/2000/svg" xmlns:xlink="http://www.w3.org/1999/xlink" width="599.3934" height="371.77213" viewBox="0,0,599.3934,371.77213"><defs><linearGradient x1="240.00003" y1="-5.88604" x2="240.00003" y2="365.88609" gradientUnits="userSpaceOnUse" id="color-1"><stop offset="0" stop-color="#929292"/><stop offset="1" stop-color="#828282"/></linearGradient><linearGradient x1="-39.28394" y1="143.36278" x2="181.29601" y2="107.41203" gradientUnits="userSpaceOnUse" id="color-2"><stop offset="0" stop-color="#262626"/><stop offset="0.255" stop-color="#4d4d4d"/><stop offset="0.515" stop-color="#000000"/><stop offset="0.745" stop-color="#4d4d4d"/><stop offset="1" stop-color="#262626"/></linearGradient><linearGradient x1="149.53481" y1="90.31955" x2="146.774" y2="73.38033" gradientUnits="userSpaceOnUse" id="color-3"><stop offset="0" stop-color="#231f20"/><stop offset="1" stop-color="#000000"/></linearGradient><linearGradient x1="-13.66721" y1="116.91456" x2="-16.42743" y2="99.97891" gradientUnits="userSpaceOnUse" id="color-4"><stop offset="0" stop-color="#231f20"/><stop offset="1" stop-color="#000000"/></linearGradient><linearGradient x1="157.84133" y1="244.00619" x2="189.7396" y2="238.80732" gradientUnits="userSpaceOnUse" id="color-5"><stop offset="0.41" stop-color="#231f20"/><stop offset="1" stop-color="#4d4d4d"/></linearGradient><linearGradient x1="27.89279" y1="265.18375" x2="-4.00504" y2="270.38255" gradientUnits="userSpaceOnUse" id="color-6"><stop offset="0.41" stop-color="#231f20"/><stop offset="1" stop-color="#4d4d4d"/></linearGradient><radialGradient cx="99.68438" cy="289.92922" r="207.15892" gradientUnits="userSpaceOnUse" id="color-7"><stop offset="0.169" stop-color="#cecece"/><stop offset="0.337" stop-color="#989899"/><stop offset="0.512" stop-color="#9b9b9c"/><stop offset="0.705" stop-color="#666666"/><stop offset="0.892" stop-color="#9b9b9c"/><stop offset="1" stop-color="#d9d9d9"/></radialGradient><radialGradient cx="80.47744" cy="183.50591" r="112.14819" gradientUnits="userSpaceOnUse" id="color-8"><stop offset="0.952" stop-color="#000000"/><stop offset="1" stop-color="#404040"/></radialGradient><radialGradient cx="96.95455" cy="288.78578" r="192.85492" gradientUnits="userSpaceOnUse" id="color-9"><stop offset="0.169" stop-color="#cecece"/><stop offset="0.337" stop-color="#989899"/><stop offset="0.512" stop-color="#9b9b9c"/><stop offset="0.705" stop-color="#666666"/><stop offset="0.892" stop-color="#9b9b9c"/><stop offset="1" stop-color="#d9d9d9"/></radialGradient><linearGradient x1="97.78682" y1="289.70401" x2="63.56059" y2="79.70501" gradientUnits="userSpaceOnUse" id="color-10"><stop offset="0" stop-color="#ffffff"/><stop offset="0.188" stop-color="#999999" stop-opacity="0.891"/><stop offset="1" stop-color="#ffffff" stop-opacity="0"/></linearGradient><linearGradient x1="65.26533" y1="90.1703" x2="95.59082" y2="276.2358" gradientUnits="userSpaceOnUse" id="color-11"><stop offset="0" stop-color="#d9d9d9"/><stop offset="1" stop-color="#000000"/></linearGradient><radialGradient cx="80.44042" cy="183.27876" r="96.13752" gradientUnits="userSpaceOnUse" id="color-12"><stop offset="0.922" stop-color="#333333"/><stop offset="1" stop-color="#333333" stop-opacity="0.5"/></radialGradient><linearGradient x1="-18.24088" y1="199.35801" x2="178.30402" y2="167.32456" gradientUnits="userSpaceOnUse" id="color-13"><stop offset="0.012" stop-color="#ffffff" stop-opacity="0.3"/><stop offset="0.315" stop-color="#ffffff"/><stop offset="0.679" stop-color="#ffffff"/><stop offset="1" stop-color="#ffffff" stop-opacity="0.3"/></linearGradient><linearGradient x1="-15.25974" y1="102.7111" x2="-13.17097" y2="115.52697" gradientUnits="userSpaceOnUse" id="color-14"><stop offset="0" stop-color="#ffffff"/><stop offset="0.521" stop-color="#ffffff" stop-opacity="0"/></linearGradient><linearGradient x1="146.94287" y1="76.27348" x2="149.03185" y2="89.09069" gradientUnits="userSpaceOnUse" id="color-15"><stop offset="0" stop-color="#ffffff"/><stop offset="0.521" stop-color="#ffffff" stop-opacity="0"/></linearGradient><linearGradient x1="-12.9027" y1="117.75925" x2="-26.02507" y2="108.31448" gradientUnits="userSpaceOnUse" id="color-16"><stop offset="0" stop-color="#ffffff" stop-opacity="0"/><stop offset="1" stop-color="#000000"/></linearGradient><linearGradient x1="149.216" y1="91.58952" x2="158.41726" y2="78.80494" gradientUnits="userSpaceOnUse" id="color-17"><stop offset="0" stop-color="#ffffff" stop-opacity="0"/><stop offset="1" stop-color="#000000"/></linearGradient><linearGradient x1="10.56789" y1="278.57223" x2="2.61971" y2="288.60681" gradientUnits="userSpaceOnUse" id="color-18"><stop offset="0" stop-color="#ffffff" stop-opacity="0"/><stop offset="1" stop-color="#ffffff"/></linearGradient><linearGradient x1="188.51683" y1="258.69009" x2="178.74581" y2="251.65773" gradientUnits="userSpaceOnUse" id="color-19"><stop offset="0" stop-color="#ffffff"/><stop offset="1" stop-color="#ffffff" stop-opacity="0"/></linearGradient><linearGradient x1="142.58972" y1="88.27156" x2="159.29601" y2="85.54872" gradientUnits="userSpaceOnUse" id="color-20"><stop offset="0.012" stop-color="#ffffff" stop-opacity="0.3"/><stop offset="0.315" stop-color="#ffffff"/><stop offset="0.679" stop-color="#ffffff"/><stop offset="1" stop-color="#ffffff" stop-opacity="0.3"/></linearGradient><linearGradient x1="152.09727" y1="93.99031" x2="149.77606" y2="79.74832" gradientUnits="userSpaceOnUse" id="color-21"><stop offset="0" stop-color="#7b7d80"/><stop offset="1" stop-color="#19191a"/></linearGradient><radialGradient cx="150.07635" cy="83.43243" r="8.46876" gradientUnits="userSpaceOnUse" id="color-22"><stop offset="0.291" stop-color="#cdcdcd"/><stop offset="0.521" stop-color="#555556"/><stop offset="0.6" stop-color="#616162"/><stop offset="1" stop-color="#abacab"/></radialGradient><linearGradient x1="169.48003" y1="253.3078" x2="186.19388" y2="250.58373" gradientUnits="userSpaceOnUse" id="color-23"><stop offset="0.012" stop-color="#ffffff" stop-opacity="0.3"/><stop offset="0.315" stop-color="#ffffff"/><stop offset="0.679" stop-color="#ffffff"/><stop offset="1" stop-color="#ffffff" stop-opacity="0.3"/></linearGradient><linearGradient x1="178.99151" y1="259.02545" x2="176.66966" y2="244.77946" gradientUnits="userSpaceOnUse" id="color-24"><stop offset="0" stop-color="#4a4b4d"/><stop offset="1" stop-color="#19191a"/></linearGradient><radialGradient cx="176.97002" cy="248.46631" r="8.46876" gradientUnits="userSpaceOnUse" id="color-25"><stop offset="0.291" stop-color="#cdcdcd"/><stop offset="0.521" stop-color="#555556"/><stop offset="0.6" stop-color="#616162"/><stop offset="1" stop-color="#abacab"/></radialGradient><linearGradient x1="-24.72252" y1="115.54059" x2="-8.01669" y2="112.81782" gradientUnits="userSpaceOnUse" id="color-26"><stop offset="0.012" stop-color="#ffffff" stop-opacity="0.3"/><stop offset="0.315" stop-color="#ffffff"/><stop offset="0.679" stop-color="#ffffff"/><stop offset="1" stop-color="#ffffff" stop-opacity="0.3"/></linearGradient><linearGradient x1="-15.21542" y1="121.25941" x2="-17.53662" y2="107.01742" gradientUnits="userSpaceOnUse" id="color-27"><stop offset="0" stop-color="#7b7d80"/><stop offset="1" stop-color="#19191a"/></linearGradient><radialGradient cx="-17.23681" cy="110.7021" r="8.46876" gradientUnits="userSpaceOnUse" id="color-28"><stop offset="0.291" stop-color="#cdcdcd"/><stop offset="0.521" stop-color="#555556"/><stop offset="0.6" stop-color="#616162"/><stop offset="1" stop-color="#abacab"/></radialGradient><linearGradient x1="2.17535" y1="280.57559" x2="18.88876" y2="277.85159" gradientUnits="userSpaceOnUse" id="color-29"><stop offset="0.012" stop-color="#ffffff" stop-opacity="0.3"/><stop offset="0.315" stop-color="#ffffff"/><stop offset="0.679" stop-color="#ffffff"/><stop offset="1" stop-color="#ffffff" stop-opacity="0.3"/></linearGradient><linearGradient x1="11.68639" y1="286.29332" x2="9.36454" y2="272.04732" gradientUnits="userSpaceOnUse" id="color-30"><stop offset="0" stop-color="#4a4b4d"/><stop offset="1" stop-color="#19191a"/></linearGradient><radialGradient cx="9.66447" cy="275.73471" r="8.46921" gradientUnits="userSpaceOnUse" id="color-31"><stop offset="0.291" stop-color="#cdcdcd"/><stop offset="0.521" stop-color="#555556"/><stop offset="0.6" stop-color="#616162"/><stop offset="1" stop-color="#abacab"/></radialGradient><linearGradient x1="15.49542" y1="291.41008" x2="13.40643" y2="278.59287" gradientUnits="userSpaceOnUse" id="color-32"><stop offset="0" stop-color="#4d4d4d"/><stop offset="1" stop-color="#ffffff" stop-opacity="0"/></linearGradient><linearGradient x1="178.02804" y1="267.01133" x2="175.19261" y2="249.61427" gradientUnits="userSpaceOnUse" id="color-33"><stop offset="0" stop-color="#4d4d4d"/><stop offset="1" stop-color="#ffffff" stop-opacity="0"/></linearGradient><radialGradient cx="78.96205" cy="179.42309" r="41.07087" gradientUnits="userSpaceOnUse" id="color-34"><stop offset="0.564" stop-color="#331a00" stop-opacity="0"/><stop offset="0.679" stop-color="#331a00"/><stop offset="0.861" stop-color="#523619" stop-opacity="0.5"/><stop offset="1" stop-color="#806040" stop-opacity="0"/></radialGradient><radialGradient cx="80.4422" cy="183.27847" r="92.9011" gradientUnits="userSpaceOnUse" id="color-35"><stop offset="0" stop-color="#000000"/><stop offset="0.976" stop-color="#15161a"/><stop offset="1" stop-color="#141519" stop-opacity="0"/></radialGradient><linearGradient x1="66.24139" y1="96.15342" x2="78.15887" y2="169.27447" gradientUnits="userSpaceOnUse" id="color-36"><stop offset="0" stop-color="#ffffff" stop-opacity="0.7"/><stop offset="0.248" stop-color="#ffffff" stop-opacity="0.4"/><stop offset="1" stop-color="#000000" stop-opacity="0"/></linearGradient><linearGradient x1="93.65138" y1="264.353" x2="81.73398" y2="191.23239" gradientUnits="userSpaceOnUse" id="color-37"><stop offset="0" stop-color="#ffffff" stop-opacity="0.7"/><stop offset="0.248" stop-color="#ffffff" stop-opacity="0.4"/><stop offset="1" stop-color="#000000" stop-opacity="0"/></linearGradient><linearGradient x1="68.50686" y1="110.04786" x2="92.57984" y2="257.75037" gradientUnits="userSpaceOnUse" id="color-38"><stop offset="0" stop-color="#222626"/><stop offset="0.848" stop-color="#17191a"/><stop offset="1" stop-color="#4f5256"/></linearGradient><radialGradient cx="78.62194" cy="175.9954" r="47.23145" gradientUnits="userSpaceOnUse" id="color-39"><stop offset="0.382" stop-color="#303033"/><stop offset="0.939" stop-color="#0c0c0d"/></radialGradient><radialGradient cx="80.43828" cy="183.27408" r="33.58132" gradientUnits="userSpaceOnUse" id="color-40"><stop offset="0" stop-color="#000000"/><stop offset="0.97" stop-color="#15161a"/><stop offset="1" stop-color="#141519" stop-opacity="0.5"/></radialGradient><linearGradient x1="75.32176" y1="151.87264" x2="79.65855" y2="178.48155" gradientUnits="userSpaceOnUse" id="color-41"><stop offset="0" stop-color="#ffffff" stop-opacity="0.7"/><stop offset="0.248" stop-color="#ffffff" stop-opacity="0.4"/><stop offset="1" stop-color="#000000" stop-opacity="0"/></linearGradient><linearGradient x1="85.54928" y1="214.62476" x2="81.21255" y2="188.01629" gradientUnits="userSpaceOnUse" id="color-42"><stop offset="0" stop-color="#ffffff" stop-opacity="0.7"/><stop offset="0.248" stop-color="#ffffff" stop-opacity="0.4"/><stop offset="1" stop-color="#000000" stop-opacity="0"/></linearGradient><linearGradient x1="80.58091" y1="184.152" x2="85.60107" y2="214.95374" gradientUnits="userSpaceOnUse" id="color-43"><stop offset="0" stop-color="#000000" stop-opacity="0"/><stop offset="1" stop-color="#ffffff" stop-opacity="0.4"/></linearGradient><radialGradient cx="80.07267" cy="183.25823" r="27.92976" gradientUnits="userSpaceOnUse" id="color-44"><stop offset="0.891" stop-color="#2e2e31" stop-opacity="0"/><stop offset="1" stop-color="#0c0c0d"/></radialGradient><radialGradient cx="65.33555" cy="179.63371" r="7.41492" gradientUnits="userSpaceOnUse" id="color-45"><stop offset="0.2" stop-color="#000000" stop-opacity="0.5"/><stop offset="1" stop-color="#ffffff" stop-opacity="0"/></radialGradient><radialGradient cx="90.70183" cy="168.70131" r="10.99595" gradientUnits="userSpaceOnUse" id="color-46"><stop offset="0.206" stop-color="#ffffff" stop-opacity="0.6"/><stop offset="0.612" stop-color="#dddddd" stop-opacity="0.405"/><stop offset="1" stop-color="#ffffff" stop-opacity="0"/></radialGradient><linearGradient x1="75.64325" y1="117.52241" x2="80.61244" y2="182.00025" gradientUnits="userSpaceOnUse" id="color-47"><stop offset="0" stop-color="#807366" stop-opacity="0"/><stop offset="0.709" stop-color="#807366" stop-opacity="0.8"/><stop offset="0.921" stop-color="#807366" stop-opacity="0.5"/><stop offset="1" stop-color="#807366" stop-opacity="0"/></linearGradient><linearGradient x1="293.27469" y1="104.86903" x2="512.65622" y2="147.52713" gradientUnits="userSpaceOnUse" id="color-48"><stop offset="0" stop-color="#262626"/><stop offset="0.255" stop-color="#4d4d4d"/><stop offset="0.515" stop-color="#000000"/><stop offset="0.745" stop-color="#4d4d4d"/><stop offset="1" stop-color="#262626"/></linearGradient><linearGradient x1="488.77911" y1="120.49364" x2="492.055" y2="103.64645" gradientUnits="userSpaceOnUse" id="color-49"><stop offset="0" stop-color="#231f20"/><stop offset="1" stop-color="#000000"/></linearGradient><linearGradient x1="326.46519" y1="88.92802" x2="329.74039" y2="72.08438" gradientUnits="userSpaceOnUse" id="color-50"><stop offset="0" stop-color="#231f20"/><stop offset="1" stop-color="#000000"/></linearGradient><linearGradient x1="443.35162" y1="267.5478" x2="475.07658" y2="273.71663" gradientUnits="userSpaceOnUse" id="color-51"><stop offset="0.41" stop-color="#231f20"/><stop offset="1" stop-color="#4d4d4d"/></linearGradient><linearGradient x1="314.10973" y1="242.41525" x2="282.38521" y2="236.2465" gradientUnits="userSpaceOnUse" id="color-52"><stop offset="0.41" stop-color="#231f20"/><stop offset="1" stop-color="#4d4d4d"/></linearGradient><radialGradient cx="372.89032" cy="290.49033" r="207.15891" gradientUnits="userSpaceOnUse" id="color-53"><stop offset="0.169" stop-color="#cecece"/><stop offset="0.337" stop-color="#989899"/><stop offset="0.512" stop-color="#9b9b9c"/><stop offset="0.705" stop-color="#666666"/><stop offset="0.892" stop-color="#9b9b9c"/><stop offset="1" stop-color="#d9d9d9"/></radialGradient><radialGradient cx="391.72502" cy="184.00051" r="112.14818" gradientUnits="userSpaceOnUse" id="color-54"><stop offset="0.952" stop-color="#000000"/><stop offset="1" stop-color="#404040"/></radialGradient><radialGradient cx="370.72534" cy="288.47232" r="192.85491" gradientUnits="userSpaceOnUse" id="color-55"><stop offset="0.169" stop-color="#cecece"/><stop offset="0.337" stop-color="#989899"/><stop offset="0.512" stop-color="#9b9b9c"/><stop offset="0.705" stop-color="#666666"/><stop offset="0.892" stop-color="#9b9b9c"/><stop offset="1" stop-color="#d9d9d9"/></radialGradient><linearGradient x1="371.18815" y1="289.62195" x2="411.80001" y2="80.76388" gradientUnits="userSpaceOnUse" id="color-56"><stop offset="0" stop-color="#ffffff"/><stop offset="0.188" stop-color="#999999" stop-opacity="0.891"/><stop offset="1" stop-color="#ffffff" stop-opacity="0"/></linearGradient><linearGradient x1="409.77526" y1="91.172" x2="373.79192" y2="276.22659" gradientUnits="userSpaceOnUse" id="color-57"><stop offset="0" stop-color="#d9d9d9"/><stop offset="1" stop-color="#000000"/></linearGradient><radialGradient cx="391.76895" cy="183.7746" r="96.13752" gradientUnits="userSpaceOnUse" id="color-58"><stop offset="0.922" stop-color="#333333"/><stop offset="1" stop-color="#333333" stop-opacity="0.5"/></radialGradient><linearGradient x1="293.62521" y1="164.68669" x2="489.10228" y2="202.69665" gradientUnits="userSpaceOnUse" id="color-59"><stop offset="0.012" stop-color="#ffffff" stop-opacity="0.3"/><stop offset="0.315" stop-color="#ffffff"/><stop offset="0.679" stop-color="#ffffff"/><stop offset="1" stop-color="#ffffff" stop-opacity="0.3"/></linearGradient><linearGradient x1="329.88971" y1="75.05188" x2="327.41123" y2="87.79813" gradientUnits="userSpaceOnUse" id="color-60"><stop offset="0" stop-color="#ffffff"/><stop offset="0.521" stop-color="#ffffff" stop-opacity="0"/></linearGradient><linearGradient x1="491.21154" y1="106.41908" x2="488.73281" y2="119.16665" gradientUnits="userSpaceOnUse" id="color-61"><stop offset="0" stop-color="#ffffff"/><stop offset="0.521" stop-color="#ffffff" stop-opacity="0"/></linearGradient><linearGradient x1="326.88989" y1="89.98519" x2="317.85006" y2="76.58065" gradientUnits="userSpaceOnUse" id="color-62"><stop offset="0" stop-color="#ffffff" stop-opacity="0"/><stop offset="1" stop-color="#000000"/></linearGradient><linearGradient x1="488.04024" y1="121.57464" x2="501.09937" y2="112.76737" gradientUnits="userSpaceOnUse" id="color-63"><stop offset="0" stop-color="#ffffff" stop-opacity="0"/><stop offset="1" stop-color="#000000"/></linearGradient><linearGradient x1="293.22047" y1="248.97592" x2="282.28919" y2="255.63727" gradientUnits="userSpaceOnUse" id="color-64"><stop offset="0" stop-color="#ffffff" stop-opacity="0"/><stop offset="1" stop-color="#ffffff"/></linearGradient><linearGradient x1="467.04428" y1="291.94577" x2="460.31305" y2="281.96492" gradientUnits="userSpaceOnUse" id="color-65"><stop offset="0" stop-color="#ffffff"/><stop offset="1" stop-color="#ffffff" stop-opacity="0"/></linearGradient><linearGradient x1="482.97292" y1="116.16735" x2="499.58844" y2="119.39819" gradientUnits="userSpaceOnUse" id="color-66"><stop offset="0.012" stop-color="#ffffff" stop-opacity="0.3"/><stop offset="0.315" stop-color="#ffffff"/><stop offset="0.679" stop-color="#ffffff"/><stop offset="1" stop-color="#ffffff" stop-opacity="0.3"/></linearGradient><linearGradient x1="489.91187" y1="124.82464" x2="492.66614" y2="110.66003" gradientUnits="userSpaceOnUse" id="color-67"><stop offset="0" stop-color="#7b7d80"/><stop offset="1" stop-color="#19191a"/></linearGradient><radialGradient cx="491.67208" cy="114.22018" r="8.46875" gradientUnits="userSpaceOnUse" id="color-68"><stop offset="0.291" stop-color="#cdcdcd"/><stop offset="0.521" stop-color="#555556"/><stop offset="0.6" stop-color="#616162"/><stop offset="1" stop-color="#abacab"/></radialGradient><linearGradient x1="451.04916" y1="280.30426" x2="467.67221" y2="283.53656" gradientUnits="userSpaceOnUse" id="color-69"><stop offset="0.012" stop-color="#ffffff" stop-opacity="0.3"/><stop offset="0.315" stop-color="#ffffff"/><stop offset="0.679" stop-color="#ffffff"/><stop offset="1" stop-color="#ffffff" stop-opacity="0.3"/></linearGradient><linearGradient x1="457.99218" y1="288.96187" x2="460.74722" y2="274.79327" gradientUnits="userSpaceOnUse" id="color-70"><stop offset="0" stop-color="#4a4b4d"/><stop offset="1" stop-color="#19191a"/></linearGradient><radialGradient cx="459.75228" cy="278.35602" r="8.46876" gradientUnits="userSpaceOnUse" id="color-71"><stop offset="0.291" stop-color="#cdcdcd"/><stop offset="0.521" stop-color="#555556"/><stop offset="0.6" stop-color="#616162"/><stop offset="1" stop-color="#abacab"/></radialGradient><linearGradient x1="316.56969" y1="83.81072" x2="333.18477" y2="87.04147" gradientUnits="userSpaceOnUse" id="color-72"><stop offset="0.012" stop-color="#ffffff" stop-opacity="0.3"/><stop offset="0.315" stop-color="#ffffff"/><stop offset="0.679" stop-color="#ffffff"/><stop offset="1" stop-color="#ffffff" stop-opacity="0.3"/></linearGradient><linearGradient x1="323.5082" y1="92.46792" x2="326.26246" y2="78.3033" gradientUnits="userSpaceOnUse" id="color-73"><stop offset="0" stop-color="#7b7d80"/><stop offset="1" stop-color="#19191a"/></linearGradient><radialGradient cx="325.26776" cy="81.86382" r="8.46876" gradientUnits="userSpaceOnUse" id="color-74"><stop offset="0.291" stop-color="#cdcdcd"/><stop offset="0.521" stop-color="#555556"/><stop offset="0.6" stop-color="#616162"/><stop offset="1" stop-color="#abacab"/></radialGradient><linearGradient x1="284.65346" y1="247.94909" x2="301.27606" y2="251.18131" gradientUnits="userSpaceOnUse" id="color-75"><stop offset="0.012" stop-color="#ffffff" stop-opacity="0.3"/><stop offset="0.315" stop-color="#ffffff"/><stop offset="0.679" stop-color="#ffffff"/><stop offset="1" stop-color="#ffffff" stop-opacity="0.3"/></linearGradient><linearGradient x1="291.59603" y1="256.60661" x2="294.35107" y2="242.43802" gradientUnits="userSpaceOnUse" id="color-76"><stop offset="0" stop-color="#4a4b4d"/><stop offset="1" stop-color="#19191a"/></linearGradient><radialGradient cx="293.35555" cy="246.00112" r="8.46921" gradientUnits="userSpaceOnUse" id="color-77"><stop offset="0.291" stop-color="#cdcdcd"/><stop offset="0.521" stop-color="#555556"/><stop offset="0.6" stop-color="#616162"/><stop offset="1" stop-color="#abacab"/></radialGradient><linearGradient x1="293.39751" y1="262.72581" x2="295.87624" y2="249.97824" gradientUnits="userSpaceOnUse" id="color-78"><stop offset="0" stop-color="#4d4d4d"/><stop offset="1" stop-color="#ffffff" stop-opacity="0"/></linearGradient><linearGradient x1="454.32289" y1="296.12001" x2="457.68732" y2="278.81746" gradientUnits="userSpaceOnUse" id="color-79"><stop offset="0" stop-color="#4d4d4d"/><stop offset="1" stop-color="#ffffff" stop-opacity="0"/></linearGradient><radialGradient cx="391.71723" cy="179.64554" r="41.07086" gradientUnits="userSpaceOnUse" id="color-80"><stop offset="0.564" stop-color="#331a00" stop-opacity="0"/><stop offset="0.679" stop-color="#331a00"/><stop offset="0.861" stop-color="#523619" stop-opacity="0.5"/><stop offset="1" stop-color="#806040" stop-opacity="0"/></radialGradient><radialGradient cx="391.77072" cy="183.77494" r="92.9011" gradientUnits="userSpaceOnUse" id="color-81"><stop offset="0" stop-color="#000000"/><stop offset="0.976" stop-color="#15161a"/><stop offset="1" stop-color="#141519" stop-opacity="0"/></radialGradient><linearGradient x1="408.61904" y1="97.12292" x2="394.4781" y2="169.84671" gradientUnits="userSpaceOnUse" id="color-82"><stop offset="0" stop-color="#ffffff" stop-opacity="0.7"/><stop offset="0.248" stop-color="#ffffff" stop-opacity="0.4"/><stop offset="1" stop-color="#000000" stop-opacity="0"/></linearGradient><linearGradient x1="376.08737" y1="264.4074" x2="390.22821" y2="191.68406" gradientUnits="userSpaceOnUse" id="color-83"><stop offset="0" stop-color="#ffffff" stop-opacity="0.7"/><stop offset="0.248" stop-color="#ffffff" stop-opacity="0.4"/><stop offset="1" stop-color="#000000" stop-opacity="0"/></linearGradient><linearGradient x1="405.93284" y1="110.94219" x2="377.36855" y2="257.84223" gradientUnits="userSpaceOnUse" id="color-84"><stop offset="0" stop-color="#222626"/><stop offset="0.848" stop-color="#17191a"/><stop offset="1" stop-color="#4f5256"/></linearGradient><radialGradient cx="392.58514" cy="176.31215" r="47.23145" gradientUnits="userSpaceOnUse" id="color-85"><stop offset="0.382" stop-color="#303033"/><stop offset="0.939" stop-color="#0c0c0d"/></radialGradient><radialGradient cx="391.76857" cy="183.76947" r="33.58132" gradientUnits="userSpaceOnUse" id="color-86"><stop offset="0" stop-color="#000000"/><stop offset="0.97" stop-color="#15161a"/><stop offset="1" stop-color="#141519" stop-opacity="0.5"/></radialGradient><linearGradient x1="397.8426" y1="152.53911" x2="392.69668" y2="179.00345" gradientUnits="userSpaceOnUse" id="color-87"><stop offset="0" stop-color="#ffffff" stop-opacity="0.7"/><stop offset="0.248" stop-color="#ffffff" stop-opacity="0.4"/><stop offset="1" stop-color="#000000" stop-opacity="0"/></linearGradient><linearGradient x1="385.70692" y1="214.95029" x2="390.85275" y2="188.48639" gradientUnits="userSpaceOnUse" id="color-88"><stop offset="0" stop-color="#ffffff" stop-opacity="0.7"/><stop offset="0.248" stop-color="#ffffff" stop-opacity="0.4"/><stop offset="1" stop-color="#000000" stop-opacity="0"/></linearGradient><linearGradient x1="391.59836" y1="184.64246" x2="385.64159" y2="215.27685" gradientUnits="userSpaceOnUse" id="color-89"><stop offset="0" stop-color="#000000" stop-opacity="0"/><stop offset="1" stop-color="#ffffff" stop-opacity="0.4"/></linearGradient><radialGradient cx="391.43106" cy="183.62799" r="27.92976" gradientUnits="userSpaceOnUse" id="color-90"><stop offset="0.891" stop-color="#2e2e31" stop-opacity="0"/><stop offset="1" stop-color="#0c0c0d"/></radialGradient><radialGradient cx="378.86089" cy="175.12442" r="7.41492" gradientUnits="userSpaceOnUse" id="color-91"><stop offset="0.2" stop-color="#000000" stop-opacity="0.5"/><stop offset="1" stop-color="#ffffff" stop-opacity="0"/></radialGradient><radialGradient cx="406.44348" cy="173.6525" r="10.99595" gradientUnits="userSpaceOnUse" id="color-92"><stop offset="0.206" stop-color="#ffffff" stop-opacity="0.6"/><stop offset="0.612" stop-color="#dddddd" stop-opacity="0.405"/><stop offset="1" stop-color="#ffffff" stop-opacity="0"/></radialGradient><linearGradient x1="410.03932" y1="120.42554" x2="392.37306" y2="182.63476" gradientUnits="userSpaceOnUse" id="color-93"><stop offset="0" stop-color="#807366" stop-opacity="0"/><stop offset="0.709" stop-color="#807366" stop-opacity="0.8"/><stop offset="0.921" stop-color="#807366" stop-opacity="0.5"/><stop offset="1" stop-color="#807366" stop-opacity="0"/></linearGradient></defs><g transform="translate(59.69668,5.88605)"><g data-paper-data="{&quot;isPaintingLayer&quot;:true}" fill-rule="nonzero" stroke-linecap="butt" stroke-linejoin="miter" stroke-miterlimit="10" stroke-dasharray="" stroke-dashoffset="0" style="mix-blend-mode: normal"><path d="M-59.69667,365.88609v-371.77213h599.3934v371.77213z" fill="url(#color-1)" stroke="none" stroke-width="0"/><g stroke="none" stroke-width="1"><path d="M62.46587,72.98546c-60.29627,9.82726 -101.37498,66.20817 -92.56841,126.43031c-0.10991,-0.60984 -0.24507,-1.21191 -0.34295,-1.8237c-9.92779,-60.91313 31.40445,-118.34169 92.31402,-128.26891c60.90244,-9.92605 118.33814,31.40503 128.26651,92.32173c0.09909,0.60795 0.16254,1.2217 0.25165,1.83858c-10.77313,-59.90573 -67.62988,-100.3244 -127.92125,-90.49794z" fill="url(#color-2)"/><path d="M158.75219,75.02773c3.83397,2.75622 5.87327,7.02387 6.03249,11.40362c-0.89043,-3.00873 -2.69041,-5.76589 -5.43566,-7.74169c-6.57041,-4.72568 -15.72983,-3.23651 -20.45907,3.33447l-5.63025,6.63371l1.57752,-5.50316l3.4559,-4.79247c4.72962,-6.57151 13.8886,-8.06061 20.45952,-3.33455z" fill="url(#color-3)"/><path d="M-2.92954,104.54345l3.78414,5.08469l-0.41305,0.57391l-6.35914,-4.57677c-6.57143,-4.72917 -15.73325,-3.2323 -20.46428,3.33898c-1.97104,2.74081 -2.8046,5.92719 -2.69239,9.05911c-1.24226,-4.19958 -0.66004,-8.89449 2.09676,-12.72489c4.72976,-6.56787 13.89157,-8.06475 20.46308,-3.33513l3.58496,2.58054z" fill="url(#color-4)"/><path d="M159.80818,253.6643c-0.17086,-0.12258 -0.29909,-0.27816 -0.46011,-0.41332l17.05316,-23.69046c0.17268,0.1113 0.36877,0.18954 0.53504,0.3092l7.99016,5.75025c3.83345,2.75584 5.8758,7.01979 6.02783,11.40026c-0.8868,-3.00887 -2.69078,-5.76537 -5.43202,-7.74183l-7.98869,-5.74683c-0.16729,-0.12315 -0.3628,-0.19783 -0.53504,-0.30921l-15.55612,21.61808z" fill="url(#color-5)"/><path d="M27.92114,276.59848l-21.61496,-15.55663c-0.12922,0.16096 -0.29135,0.29393 -0.41044,0.46375l-5.75447,7.98673c-1.97179,2.7446 -2.80224,5.93048 -2.6913,9.06579c-1.24455,-4.2024 -0.66182,-8.8942 2.09505,-12.72415l5.75389,-7.9903c0.11799,-0.17377 0.28077,-0.30272 0.41095,-0.46338l23.68995,17.05004c-0.1071,0.17885 -0.18062,0.36732 -0.30327,0.53773z" fill="url(#color-6)"/><path d="M189.62999,165.48639c9.8269,60.29405 -31.09497,117.14913 -91.39348,126.97676c-60.30028,9.82791 -117.15404,-31.09143 -126.98316,-91.38511c-9.82649,-60.30554 31.09233,-117.15968 91.39218,-126.98752c60.29851,-9.82762 117.15576,31.09069 126.98447,91.39587z" fill="url(#color-7)"/><path d="M190.73194,165.30725c9.92649,60.90511 -31.40998,118.33025 -92.31533,128.2609c-60.91022,9.9232 -118.33806,-31.40458 -128.26648,-92.3103c-9.92666,-60.91743 31.40573,-118.3451 92.3153,-128.27232c60.90601,-9.92663 118.33806,31.40459 128.26651,92.32173z" fill="url(#color-8)"/><path d="M177.53354,233.53159l7.98914,5.74676c6.57521,4.73268 8.06787,13.89106 3.3387,20.4625c-4.72962,6.57151 -13.89514,8.06533 -20.46264,3.33506l-7.99386,-5.75331c-0.17028,-0.11901 -0.29901,-0.27771 -0.45583,-0.40669l0.01179,-0.02021c-15.83886,17.1341 -37.27423,29.32114 -62.08647,33.36511c-24.44702,3.98444 -48.31,-0.56645 -68.58058,-11.43721l-5.64735,7.84445c-4.72918,6.57144 -13.89024,8.06453 -20.46308,3.33513c-6.56757,-4.73071 -8.06431,-13.89164 -3.33106,-20.46054l5.69627,-7.91461c-16.46752,-15.7157 -28.14592,-36.72052 -32.08885,-60.91278c-3.88594,-23.84264 0.33306,-47.1303 10.62242,-67.07158l-7.22638,-5.19897c-6.57285,-4.7294 -8.06551,-13.8878 -3.33914,-20.46243c4.73205,-6.56779 13.8921,-8.06437 20.46309,-3.33513l6.94792,5.00249c15.83691,-17.12646 37.27324,-29.31046 62.07746,-33.35313c25.12573,-4.09826 49.63338,0.82855 70.2542,12.36143l5.47274,-7.60294c4.72924,-6.57099 13.89236,-8.0571 20.46264,-3.33506c6.56795,4.7302 8.06119,13.89215 3.33157,20.46366l-5.7504,7.98927c-0.02379,0.0336 -0.05593,0.06078 -0.08386,0.09139c15.74482,15.56236 26.89402,36.05814 30.73163,59.58175c4.03794,24.79768 -0.70597,48.98564 -11.90989,69.43946l1.48439,-2.06301c0.17268,0.1113 0.36812,0.18553 0.53504,0.3092z" fill="url(#color-9)"/><path d="M177.53354,233.53159l7.98914,5.74676c6.57521,4.73268 8.06787,13.89106 3.3387,20.4625c-4.72962,6.57151 -13.89514,8.06533 -20.46264,3.33506l-7.99386,-5.75331c-0.17028,-0.11901 -0.29901,-0.27771 -0.45583,-0.40669l0.01179,-0.02021c-15.83886,17.1341 -37.27423,29.32114 -62.08647,33.36511c-24.44702,3.98444 -48.31,-0.56645 -68.58058,-11.43721l-5.64735,7.84445c-4.72918,6.57144 -13.89024,8.06453 -20.46308,3.33513c-6.56757,-4.73071 -8.06431,-13.89164 -3.33106,-20.46054l5.69627,-7.91461c-16.46752,-15.7157 -28.14592,-36.72052 -32.08885,-60.91278c-3.88594,-23.84264 0.33306,-47.1303 10.62242,-67.07158l-7.22638,-5.19897c-6.57285,-4.7294 -8.06551,-13.8878 -3.33914,-20.46243c4.73205,-6.56779 13.8921,-8.06437 20.46309,-3.33513l6.94792,5.00249c15.83691,-17.12646 37.27324,-29.31046 62.07746,-33.35313c25.12573,-4.09826 49.63338,0.82855 70.2542,12.36143l5.47274,-7.60294c4.72924,-6.57099 13.89236,-8.0571 20.46264,-3.33506c6.56795,4.7302 8.06119,13.89215 3.33157,20.46366l-5.7504,7.98927c-0.02379,0.0336 -0.05593,0.06078 -0.08386,0.09139c15.74482,15.56236 26.89402,36.05814 30.73163,59.58175c4.03794,24.79768 -0.70597,48.98564 -11.90989,69.43946l1.48439,-2.06301c0.17268,0.1113 0.36812,0.18553 0.53504,0.3092z" fill="url(#color-10)" opacity="0.5"/><path d="M175.32565,167.81776c8.54003,52.39832 -27.01753,101.80714 -79.41941,110.34774c-52.40544,8.54119 -101.80808,-27.02057 -110.35047,-79.42216c-8.5406,-52.40188 27.01286,-101.81049 79.42054,-110.35204c52.40188,-8.5406 101.80415,27.02167 110.34935,79.42646z" fill="url(#color-11)"/><path d="M175.32565,167.81776c8.54003,52.39832 -27.01753,101.80714 -79.41941,110.34774c-52.40544,8.54119 -101.80808,-27.02057 -110.35047,-79.42216c-8.5406,-52.40188 27.01286,-101.81049 79.42054,-110.35204c52.40188,-8.5406 101.80415,27.02167 110.34935,79.42646zM170.57603,168.58866c-8.11051,-49.78539 -55.04643,-83.56828 -104.82679,-75.45494c-49.78793,8.11458 -83.56305,55.0561 -75.44963,104.83691c8.11563,49.78319 55.04705,83.56361 104.8332,75.44932c49.78036,-8.11334 83.55651,-55.05137 75.44324,-104.83129z" fill="url(#color-12)"/><path d="M179.11986,167.19937c8.88156,54.49384 -28.09782,105.8782 -82.5958,114.75678c-54.50261,8.88665 -105.88221,-28.09717 -114.76428,-82.59413c-8.88214,-54.4974 28.09437,-105.88541 82.59756,-114.7685c54.4974,-8.88214 105.87617,28.10501 114.76253,82.60585zM175.32565,167.81776c-8.5452,-52.40479 -57.94747,-87.96706 -110.34935,-79.42646c-52.40767,8.54155 -87.96114,57.95016 -79.42053,110.35204c8.54239,52.40159 57.94504,87.96335 110.35048,79.42216c52.40188,-8.5406 87.95943,-57.94943 79.41941,-110.34774z" fill="url(#color-13)" opacity="0.8"/><path d="M-28.79853,119.87221c-0.92681,-3.9753 -0.25834,-8.30934 2.31514,-11.88995c4.73205,-6.56779 13.8921,-8.06437 20.46309,-3.33513l7.99386,5.7533c0.171,0.12621 0.2996,0.28128 0.45775,0.41004l-0.78556,1.09367l-7.34611,-5.28279c-6.57099,-4.72925 -15.72983,-3.23651 -20.46264,3.33506c-2.15021,2.99359 -2.95087,6.51661 -2.63552,9.9158z" fill="url(#color-14)"/><path d="M159.57736,79.68392c-6.56787,-4.72975 -15.72983,-3.23651 -20.45952,3.33455l-5.28671,7.34172l-1.0904,-0.78792c0.10367,-0.17463 0.17594,-0.36244 0.30253,-0.53395l5.74885,-7.99313c4.73013,-6.57113 13.89254,-8.06445 20.46353,-3.33521c3.58081,2.57756 5.59222,6.47484 5.97209,10.53928c-0.77988,-3.32348 -2.65598,-6.41023 -5.65037,-8.56534z" fill="url(#color-15)"/><path d="M-23.109,126.57946c-5.41824,-4.36664 -6.57623,-12.22348 -2.46528,-17.9425c4.11568,-5.71247 11.93362,-7.10919 17.79184,-3.35881c-3.16107,2.32896 -6.37241,5.57826 -9.21458,9.52728c-2.84515,3.95316 -4.90845,8.0299 -6.11198,11.77403z" fill="url(#color-16)"/><path d="M152.36665,87.20206c-3.94843,-2.83861 -8.02865,-4.90637 -11.76233,-6.10475c4.36426,-5.41602 12.21695,-6.577 17.93568,-2.46782c5.71239,4.11798 7.10905,11.93273 3.35656,17.7977c-2.33109,-3.1685 -5.57675,-6.37998 -9.52991,-9.22513z" fill="url(#color-17)"/><path d="M9.86267,279.60616c3.9496,2.84573 8.027,4.91028 11.76342,6.11142c-4.36515,5.41616 -12.2191,6.57506 -17.93811,2.46137c-5.71431,-4.11858 -7.10838,-11.93146 -3.3568,-17.7908c2.32584,3.16433 5.57655,6.37315 9.53105,9.21808z" fill="url(#color-18)" opacity="0.8"/><path d="M185.33489,240.23572c5.4224,4.36413 6.57773,12.22141 2.46604,17.93598c-4.11592,5.71663 -11.93051,7.11143 -17.79223,3.36207c3.16249,-2.32873 6.37338,-5.57796 9.21764,-9.53098c2.84426,-3.95301 4.90606,-8.02769 6.10854,-11.76707z" fill="url(#color-19)" opacity="0.8"/><path d="M159.29659,85.55229c0.75217,4.61505 -2.37429,8.96017 -6.9929,9.71292c-4.61193,0.75167 -8.96179,-2.3786 -9.71331,-6.98964c-0.75283,-4.61906 2.37439,-8.96796 6.98989,-9.72021c4.61862,-0.75275 8.96669,2.37781 9.71632,6.99693z" fill="url(#color-20)" opacity="0.8"/><path d="M158.3126,85.709c0.65991,4.07138 -2.09975,7.90955 -6.16965,8.57287c-4.06679,0.66281 -7.90547,-2.09995 -8.56836,-6.16717c-0.66347,-4.0708 2.09965,-7.90451 6.16667,-8.57148c4.06873,-0.6677 7.90852,2.099 8.57134,6.16578z" fill="url(#color-21)" opacity="0.8"/><path d="M157.02144,85.91944c0.54332,3.35883 -1.73101,6.51943 -5.08919,7.06676c-3.35417,0.54667 -6.51929,-1.72738 -7.06603,-5.082c-0.55031,-3.35403 1.73132,-6.52314 5.0855,-7.06981c3.35818,-0.54733 6.52299,1.73044 7.06973,5.08505z" fill="url(#color-22)"/><path d="M153.97957,82.70721c0.31603,0.22785 0.38827,0.671 0.16152,0.99097l-2.20444,3.05365l3.05649,2.19666c0.31908,0.22689 0.39138,0.67049 0.16397,0.98646c-0.23039,0.3201 -0.67755,0.39298 -0.99409,0.16202l-3.05292,-2.19724l-2.19679,3.05285c-0.22669,0.32316 -0.66984,0.39539 -0.9858,0.16799c-0.32006,-0.22801 -0.39567,-0.67182 -0.16915,-0.99294l2.20436,-3.05409l-3.06056,-2.19919c-0.31672,-0.22999 -0.38881,-0.67232 -0.16151,-0.99098c0.23127,-0.31682 0.67419,-0.389 0.99409,-0.16202l3.05364,2.20444l2.20066,-3.05714c0.23039,-0.3201 0.6745,-0.38929 0.99053,-0.16144z" fill="#000000"/><path d="M186.19374,250.58284c0.75217,4.61505 -2.3772,8.96476 -6.99581,9.71751c-4.61193,0.75167 -8.96186,-2.37905 -9.71804,-6.99344c-0.75224,-4.6155 2.38276,-8.96429 6.99469,-9.71596c4.61862,-0.75276 8.96692,2.37639 9.71916,6.99188z" fill="url(#color-23)" opacity="0.8"/><path d="M185.20677,250.7437c0.66296,4.06768 -2.10009,7.90458 -6.16912,8.57325c-4.06803,0.65799 -7.9065,-2.10343 -8.57004,-6.17467c-0.66216,-4.06277 2.10002,-7.90502 6.16725,-8.56791c4.0699,-0.66332 7.90516,2.10366 8.57191,6.16934z" fill="url(#color-24)" opacity="0.8"/><path d="M183.91516,250.95421c0.54609,3.35061 -1.73109,6.51898 -5.08882,7.06624c-3.35462,0.54674 -6.52299,-1.73043 -7.0672,-5.08912c-0.54667,-3.35417 1.7316,-6.51586 5.08667,-7.06268c3.35773,-0.54726 6.51943,1.73101 7.06981,5.0855z" fill="url(#color-25)"/><path d="M180.87316,247.73835c0.31643,0.22998 0.38846,0.67197 0.16144,0.99053l-2.20022,3.05707l3.05285,2.1968c0.31952,0.22682 0.3919,0.67086 0.1645,0.98683c-0.23141,0.31662 -0.67502,0.38891 -0.99454,0.16209l-3.05256,-2.19776l-2.19716,3.05337c-0.22624,0.32309 -0.66984,0.39539 -0.98696,0.16086c-0.32353,-0.22617 -0.3919,-0.67087 -0.1645,-0.98683l2.20087,-3.05307l-3.05765,-2.20378c-0.15282,-0.10989 -0.2557,-0.27604 -0.28598,-0.46182c-0.03028,-0.18578 0.01452,-0.37598 0.12454,-0.52872c0.23194,-0.31425 0.673,-0.38451 0.99111,-0.15788l3.05286,2.1968l2.20042,-3.05299c0.22999,-0.31672 0.67231,-0.38881 0.99097,-0.16151z" fill="#000000"/><path d="M-8.0161,112.82139c0.75218,4.61505 -2.37385,8.96009 -6.99246,9.71285c-4.61148,0.75159 -8.96178,-2.3786 -9.7133,-6.98964c-0.75283,-4.61906 2.37439,-8.96796 6.98988,-9.72021c4.61862,-0.75275 8.96669,2.3778 9.71588,6.997z" fill="url(#color-26)" opacity="0.8"/><path d="M-8.99964,112.97803c0.65946,4.07144 -2.09975,7.90955 -6.16965,8.57288c-4.06678,0.66281 -7.90547,-2.09995 -8.56836,-6.16718c-0.66347,-4.0708 2.09965,-7.90451 6.16667,-8.57148c4.06873,-0.6677 7.90807,2.09907 8.57089,6.16585z" fill="url(#color-27)" opacity="0.8"/><path d="M-10.29125,113.18854c0.54421,3.35869 -1.73101,6.51942 -5.08919,7.06675c-3.35418,0.54667 -6.5184,-1.72752 -7.06515,-5.08214c-0.55075,-3.35397 1.73044,-6.52299 5.08506,-7.06973c3.35818,-0.54733 6.52299,1.73044 7.06973,5.08505z" fill="url(#color-28)"/><path d="M-13.86162,109.8517c0.18586,-0.03029 0.37613,0.01451 0.52895,0.12454c0.31672,0.22999 0.38881,0.67231 0.16151,0.99097l-2.20443,3.05364l3.05604,2.19673c0.31997,0.22675 0.39227,0.67035 0.16487,0.98632c-0.23083,0.32018 -0.67799,0.39305 -0.99454,0.16209l-3.05248,-2.19731l-2.19724,3.05293c-0.22624,0.32309 -0.66984,0.39539 -0.9858,0.16799c-0.32006,-0.22801 -0.39566,-0.67181 -0.16915,-0.99293l2.20436,-3.05409l-3.06056,-2.19919c-0.31673,-0.22999 -0.38882,-0.67232 -0.16151,-0.99098c0.23141,-0.3166 0.67413,-0.38875 0.99409,-0.16202l3.05409,2.20436l2.19977,-3.057c0.10997,-0.15286 0.27618,-0.25576 0.46203,-0.28605z" fill="#000000"/><path d="M18.88862,277.8507c0.75218,4.61505 -2.3772,8.96477 -6.99626,9.71759c-4.61148,0.7516 -8.96141,-2.37912 -9.71715,-6.99359c-0.75224,-4.6155 2.38232,-8.96422 6.99381,-9.71582c4.61862,-0.75275 8.96736,2.37632 9.71961,6.99182z" fill="url(#color-29)" opacity="0.8"/><path d="M17.9012,278.01164c0.66296,4.06768 -2.09965,7.90451 -6.16912,8.57325c-4.06714,0.65785 -7.90605,-2.10351 -8.56959,-6.17475c-0.66216,-4.06277 2.10003,-7.90503 6.16681,-8.56785c4.0699,-0.66332 7.90561,2.10359 8.57236,6.16927z" fill="url(#color-30)" opacity="0.8"/><path d="M16.61049,278.222c0.54609,3.35061 -1.73109,6.51898 -5.08927,7.06631c-3.35462,0.54674 -6.52299,-1.73043 -7.0672,-5.08912c-0.54667,-3.35417 1.73204,-6.51594 5.08622,-7.06261c3.35818,-0.54733 6.51987,1.73094 7.06981,5.0855z" fill="url(#color-31)"/><path d="M13.56804,275.00621c0.31643,0.22998 0.38846,0.67197 0.16144,0.99053l-2.20022,3.05707l3.05286,2.1968c0.31953,0.22683 0.3919,0.67086 0.1645,0.98683c-0.23141,0.31662 -0.67457,0.38884 -0.99454,0.16209l-3.05255,-2.19775l-2.19716,3.05337c-0.22624,0.32309 -0.66984,0.39539 -0.98696,0.16086c-0.32309,-0.22624 -0.3919,-0.67086 -0.1645,-0.98683l2.20088,-3.05307l-3.05765,-2.20378c-0.31802,-0.229 -0.39028,-0.6724 -0.16144,-0.99053c0.23208,-0.31403 0.67295,-0.38426 0.99111,-0.15788l3.05286,2.1968l2.20042,-3.05299c0.22999,-0.31673 0.67232,-0.38881 0.99098,-0.16151zM154.13958,92.72199c0.31699,0.22755 0.39031,0.66859 0.16398,0.98646" fill="#000000"/><path d="M2.85571,288.00415c6.57405,4.72555 15.73339,3.23593 20.46263,-3.33506l5.28856,-7.34157l1.09159,0.78406c-0.10857,0.17543 -0.18121,0.36376 -0.30149,0.53744l-5.75567,7.99059c-4.72924,6.57099 -13.88808,8.06373 -20.46442,3.33535c-3.57711,-2.5745 -5.58591,-6.47267 -5.9677,-10.54045c0.7797,3.33083 2.65758,6.41728 5.6465,8.56963z" fill="url(#color-32)"/><path d="M191.23058,247.81236c0.93095,3.97827 0.26433,8.31249 -2.31329,11.89011c-4.72613,6.57048 -13.89165,8.0643 -20.45952,3.33455l-7.99341,-5.75338c-0.17073,-0.11894 -0.29909,-0.27816 -0.45641,-0.41026l0.78391,-1.08974l7.3407,5.28321c6.5761,4.73253 15.73383,3.23586 20.46352,-3.3352c2.15511,-2.99439 2.95406,-6.51667 2.6345,-9.91929z" fill="url(#color-33)"/><path d="M119.49673,172.81388c3.64872,22.38713 -11.53888,43.49754 -33.92601,47.14626c-22.38936,3.64908 -43.49372,-11.54636 -47.14422,-33.9332c-3.64657,-22.3852 11.54108,-43.49241 33.92777,-47.14105c22.3898,-3.64916 43.49418,11.54353 47.14239,33.92755z" fill="url(#color-34)" opacity="0.6"/><path d="M172.13538,168.33772c8.24843,50.63162 -26.11469,98.37811 -76.75019,106.63083c-50.64262,8.25388 -98.38524,-26.11079 -106.63501,-76.74219c-8.25552,-50.63869 26.10462,-98.38379 76.74724,-106.63767c50.6346,-8.25257 98.3811,26.11055 106.63796,76.74903zM153.79561,171.31947c-6.60261,-40.51106 -44.8018,-67.9942 -85.3093,-61.39217c-40.51106,6.60261 -68.00173,44.79206 -61.39912,85.30313c6.60261,40.51107 44.79806,68.00212 85.30492,61.39608c40.5121,-6.59912 68.00612,-44.79597 61.40351,-85.30704z" fill="url(#color-35)"/><path d="M-6.99165,180.71103c2.35899,-42.05258 31.92441,-77.93657 73.21534,-84.66628c41.29093,-6.72971 80.72292,17.91255 96.31046,57.03649c-17.51099,-36.08273 -56.0116,-60.27874 -95.78302,-53.80035c-39.76981,6.48546 -68.59361,41.6542 -73.74277,81.43014z" fill="url(#color-36)" opacity="0.5"/><path d="M93.1405,261.2184c37.77864,-6.15727 64.9299,-41.05707 69.50264,-80.73129c-1.90772,41.97126 -29.74694,77.58169 -68.9704,83.97444c-39.22805,6.38984 -76.93114,-18.53466 -92.07265,-57.72718c16.94738,36.17047 53.76547,60.64436 91.54042,54.48404z" fill="url(#color-37)" opacity="0.4"/><path d="M154.52915,171.19991c6.60261,40.51107 -21.5065,79.55709 -62.01757,86.1597c-40.5075,6.60203 -79.55444,-21.4987 -86.15698,-62.00932c-6.60268,-40.51151 21.50057,-79.55703 62.01164,-86.15964c40.5075,-6.60203 79.5603,21.4982 86.16291,62.00927zM91.55928,251.49424c37.67118,-6.14342 63.2404,-41.66643 57.10063,-79.33774c-6.13642,-37.67597 -41.66236,-63.23786 -79.33723,-57.0975c-37.67888,6.14101 -63.24015,41.65952 -57.09979,79.3344c6.14036,37.67487 41.66145,63.24075 79.33633,57.10039z" fill="url(#color-38)"/><path d="M106.95254,178.95409c2.38704,14.64595 -7.5498,28.44655 -22.19115,30.8365c-14.64194,2.38638 -28.44767,-7.54824 -30.83471,-22.19419c-2.38645,-14.64238 7.5501,-28.44751 22.19204,-30.8339c14.6455,-2.38697 28.4438,7.54979 30.83382,22.19159z" fill="url(#color-39)"/><path d="M113.58384,177.8733c2.98329,18.30432 -9.43772,35.5658 -27.74506,38.54456c-18.30447,2.98514 -35.55965,-9.43644 -38.54561,-27.74032c-2.98061,-18.30475 9.43504,-35.56262 27.7447,-38.54678c18.30387,-2.98322 35.56261,9.43778 38.54598,27.74254zM106.95254,178.95409c-2.39002,-14.6418 -16.18832,-24.57855 -30.83382,-22.19159c-14.64194,2.38638 -24.57849,16.19152 -22.19204,30.8339c2.38704,14.64595 16.19277,24.58057 30.83471,22.19419c14.64136,-2.38995 24.57819,-16.19055 22.19115,-30.8365z" fill="url(#color-40)"/><path d="M49.56957,182.49718c0.83397,-14.86229 11.15501,-28.28613 25.74573,-30.66417c14.59117,-2.37811 28.6401,7.07384 34.15016,20.90217c-6.19034,-12.75365 -19.78657,-21.30186 -33.84194,-19.01108c-14.05537,2.29078 -24.23364,14.71383 -26.05394,28.77308z" fill="url(#color-41)" opacity="0.3"/><path d="M85.24781,212.77509c14.05537,-2.29078 24.23364,-14.71383 26.05379,-28.77397c-0.83499,14.85606 -11.15456,28.28606 -25.74572,30.66417c-14.59072,2.37804 -28.64112,-7.08008 -34.15016,-20.90217c6.19049,12.75454 19.78672,21.30275 33.84209,19.01197z" fill="url(#color-42)" opacity="0.25"/><path d="M108.2705,178.73974c2.51017,15.37617 -7.91603,29.86598 -23.29641,32.37273c-15.37401,2.50936 -29.86262,-7.92343 -32.36841,-23.29802c-0.16638,-1.02081 9.80044,15.89247 30.61137,12.50064c20.53034,-3.34609 24.8919,-22.59466 25.05346,-21.57534z" fill="url(#color-43)" opacity="0.8"/><path d="M108.27043,178.73929c2.51068,15.37653 -7.91603,29.86598 -23.29641,32.37273c-15.37386,2.51025 -29.86255,-7.92299 -32.36834,-23.29758c-2.50623,-15.37726 7.91635,-29.87244 23.29673,-32.37918c15.37815,-2.50363 29.86624,7.92879 32.36803,23.30404z" fill="url(#color-44)"/><path d="M71.01941,181.78839c-1.67196,4.41028 -5.5686,7.026 -8.70837,5.83599c-3.13993,-1.18816 -4.33214,-5.7315 -2.66113,-10.14482c1.67241,-4.41035 5.57231,-7.0257 8.71497,-5.83478c3.13333,1.18695 4.33133,5.72934 2.65453,10.14361z" fill="url(#color-45)" opacity="0.7"/><path d="M79.25681,168.12532c1.7501,-3.62792 7.30728,-4.57754 12.40771,-2.11597c5.09725,2.45889 7.81667,7.39569 6.0668,11.0222c-1.74877,3.6277 -7.30099,4.57971 -12.4044,2.12229c-5.09991,-2.4612 -7.81591,-7.40221 -6.07012,-11.02852z" fill="url(#color-46)"/><path d="M12.24563,196.84172c-0.11686,-0.61603 -0.2942,-1.20756 -0.39437,-1.82219c-6.2308,-38.22982 19.61116,-74.25632 57.71182,-80.46608c38.10466,-6.2104 74.04299,19.74697 80.2738,57.97679c0.10018,0.61462 0.11731,1.23593 0.21043,1.85216z" fill="url(#color-47)" opacity="0.5"/></g><g stroke="none" stroke-width="1"><path d="M413.09993,74.08099c-59.96868,-11.66074 -118.02987,27.00664 -130.62247,86.55232c0.10807,-0.61017 0.18976,-1.22179 0.30979,-1.82963c11.78003,-60.58219 70.44186,-100.1446 131.02051,-88.36525c60.57156,11.77796 100.14106,70.44117 88.36033,131.02691c-0.11757,0.60465 -0.27058,1.2024 -0.4006,1.81198c10.63815,-59.92985 -28.70418,-117.53661 -88.668,-129.1964z" fill="url(#color-48)"/><path d="M502.72158,109.33984c2.6423,3.91335 3.07758,8.62314 1.7103,12.78705c0.20655,-3.13092 -0.52729,-6.34081 -2.41848,-9.145c-4.52743,-6.70856 -13.63581,-8.48334 -20.34791,-3.9566l-7.57908,4.27358l3.3856,-4.61641l4.90166,-3.29921c6.71263,-4.5271 15.82058,-2.7524 20.34836,3.95668z" fill="url(#color-49)"/><path d="M340.82249,81.04068l1.78924,6.0805l-0.58623,0.39537l-4.3808,-6.49571c-4.52718,-6.71219 -13.64049,-8.48056 -20.35436,-3.95417c-2.7982,1.88868 -4.6836,4.58926 -5.66287,7.56625c0.28888,-4.36992 2.46086,-8.57273 6.37352,-11.21149c6.7115,-4.52364 15.82481,-2.75526 20.3519,3.95737l2.46953,3.66231z" fill="url(#color-50)"/><path d="M441.85227,277.28944c-0.11784,-0.17416 -0.18425,-0.36453 -0.28851,-0.54708l24.20179,-16.31935c0.12345,0.16422 0.28032,0.3055 0.39486,0.47535l5.50454,8.16138c2.64194,3.91282 3.08137,8.62019 1.70709,12.78227c0.21001,-3.12979 -0.52782,-6.34044 -2.41503,-9.14387l-5.50434,-8.15767c-0.1143,-0.17347 -0.27185,-0.31122 -0.39486,-0.47535l-22.07974,14.8936z" fill="url(#color-51)"/><path d="M310.18352,253.13354l-14.8905,-22.07914c-0.17696,0.10626 -0.3751,0.17485 -0.54563,0.29293l-8.16415,5.49987c-2.80021,1.89197 -4.68251,4.59315 -5.66416,7.57289c0.28771,-4.37337 2.45909,-8.57308 6.37166,-11.21139l8.16484,-5.50341c0.17086,-0.12216 0.36822,-0.18675 0.54599,-0.2924l16.31996,24.19869c-0.16241,0.1307 -0.29665,0.28204 -0.47073,0.39944z" fill="url(#color-52)"/><path d="M500.36401,204.89428c-11.66031,59.96647 -69.73856,99.133 -129.70945,87.47183c-59.97267,-11.66152 -99.13883,-69.73694 -87.48074,-129.70384c11.66467,-59.97711 69.73974,-99.1438 129.71198,-87.48237c59.9709,11.66117 99.14068,69.73684 87.47822,129.71439z" fill="url(#color-53)"/><path d="M501.45982,205.10781c-11.77848,60.57422 -70.44308,100.13195 -131.01895,88.35728c-60.57787,-11.78333 -100.14114,-70.44073 -88.36426,-131.01618c11.78258,-60.58583 70.44424,-100.14735 131.02289,-88.36801c60.5751,11.77866 100.14114,70.44073 88.36032,131.02691z" fill="url(#color-54)"/><path d="M465.45268,264.54049l5.50479,8.15775c4.52951,6.71677 2.75836,15.8254 -3.95383,20.35259c-6.71263,4.52709 -15.82835,2.75457 -20.35146,-3.95728l-5.50695,-8.16552c-0.11853,-0.17061 -0.18435,-0.36408 -0.28679,-0.53938l0.01806,-0.01488c-20.79224,10.58914 -45.12159,14.5993 -69.79902,9.80084c-24.31421,-4.72783 -45.1248,-17.26064 -60.37677,-34.47829l-8.01439,5.40348c-6.71219,4.52718 -15.82347,2.75552 -20.3519,-3.95737c-4.52303,-6.7123 -2.75482,-15.82472 3.96031,-20.34812l8.08457,-5.45236c-10.00646,-20.44586 -13.68855,-44.19517 -9.00999,-68.256c4.61095,-23.7131 16.63317,-44.0989 33.19136,-59.24327l-4.97891,-7.37972c-4.52843,-6.71289 -2.75729,-15.82152 3.95337,-20.35268c6.71362,-4.52276 15.82517,-2.75473 20.35191,3.95737l4.78572,7.09897c20.78776,-10.58266 45.11696,-14.58963 69.78642,-9.79273c24.99032,4.85608 46.27553,17.9648 61.62678,35.92488l7.76694,-5.23737c6.7121,-4.52674 15.8229,-2.74782 20.35146,3.95728c4.52355,6.71194 2.75171,15.82411 -3.96091,20.35121l-8.1612,5.50366c-0.03395,0.02328 -0.07352,0.03765 -0.11032,0.0567c9.38157,20.05175 12.74347,43.14026 8.19766,66.53733c-4.79907,24.66169 -17.6255,45.71032 -35.21915,61.01881l2.10694,-1.42134c0.12345,0.16422 0.28109,0.30152 0.39486,0.47535z" fill="url(#color-55)"/><path d="M465.45268,264.54049l5.50479,8.15775c4.52951,6.71677 2.75836,15.8254 -3.95383,20.35259c-6.71263,4.52709 -15.82835,2.75457 -20.35146,-3.95728l-5.50695,-8.16552c-0.11853,-0.17061 -0.18435,-0.36408 -0.28679,-0.53938l0.01806,-0.01488c-20.79224,10.58914 -45.12159,14.5993 -69.79902,9.80084c-24.31421,-4.72783 -45.1248,-17.26064 -60.37677,-34.47829l-8.01439,5.40348c-6.71219,4.52718 -15.82347,2.75552 -20.3519,-3.95737c-4.52303,-6.7123 -2.75482,-15.82472 3.96031,-20.34812l8.08457,-5.45236c-10.00646,-20.44586 -13.68855,-44.19517 -9.00999,-68.256c4.61095,-23.7131 16.63317,-44.0989 33.19136,-59.24327l-4.97891,-7.37972c-4.52843,-6.71289 -2.75729,-15.82152 3.95337,-20.35268c6.71362,-4.52276 15.82517,-2.75473 20.35191,3.95737l4.78572,7.09897c20.78776,-10.58266 45.11696,-14.58963 69.78642,-9.79273c24.99032,4.85608 46.27553,17.9648 61.62678,35.92488l7.76694,-5.23737c6.7121,-4.52674 15.8229,-2.74782 20.35146,3.95728c4.52355,6.71194 2.75171,15.82411 -3.96091,20.35121l-8.1612,5.50366c-0.03395,0.02328 -0.07352,0.03765 -0.11032,0.0567c9.38157,20.05175 12.74347,43.14026 8.19766,66.53733c-4.79907,24.66169 -17.6255,45.71032 -35.21915,61.01881l2.10694,-1.42134c0.12345,0.16422 0.28109,0.30152 0.39486,0.47535z" fill="url(#color-56)" opacity="0.5"/><path d="M486.1374,202.12795c-10.13335,52.11363 -60.60063,86.15221 -112.71781,76.01817c-52.12072,-10.13473 -86.15205,-60.60381 -76.01978,-112.72134c10.13403,-52.11718 60.59742,-86.15697 112.72035,-76.02182c52.11718,10.13403 86.14798,60.60348 76.01724,112.72498z" fill="url(#color-57)"/><path d="M486.1374,202.12795c-10.13335,52.11363 -60.60063,86.15221 -112.71781,76.01817c-52.12072,-10.13473 -86.15205,-60.60381 -76.01978,-112.72134c10.13403,-52.11718 60.59742,-86.15697 112.72035,-76.02182c52.11718,10.13403 86.14798,60.60348 76.01724,112.72498zM481.41469,201.20642c9.63146,-49.51364 -22.70177,-97.45972 -72.21167,-107.08678c-49.51743,-9.62852 -97.45816,22.71265 -107.0853,72.223c-9.62589,49.51335 22.70396,97.45555 72.21962,107.08373c49.5099,9.62706 97.45038,-22.71049 107.07736,-72.21994z" fill="url(#color-58)"/><path d="M489.91099,202.86172c-10.5386,54.19777 -63.02386,89.5973 -117.22448,79.05446c-54.20776,-10.53686 -89.60128,-63.02463 -79.06207,-117.2255c10.53929,-54.20131 63.0231,-89.60525 117.23017,-79.06485c54.20132,10.53929 89.5929,63.0299 79.05638,117.23589zM486.1374,202.12795c10.13074,-52.1215 -23.90006,-102.59094 -76.01724,-112.72498c-52.12293,-10.13515 -102.58632,23.90464 -112.72035,76.02182c-10.13227,52.11753 23.89906,102.58661 76.01978,112.72134c52.11718,10.13403 102.58446,-23.90454 112.71781,-76.01817z" fill="url(#color-59)" opacity="0.8"/><path d="M311.24587,86.46286c0.50714,-4.05027 2.63508,-7.88469 6.28926,-10.35259c6.71362,-4.52276 15.82517,-2.75473 20.35191,3.95737l5.50695,8.16553c0.11671,0.17762 0.18365,0.36762 0.28743,0.54318l-1.11568,0.75397l-5.06222,-7.49981c-4.52674,-6.7121 -13.63582,-8.48333 -20.35146,-3.95728c-3.05383,2.06378 -5.02492,5.09157 -5.90619,8.38964z" fill="url(#color-60)"/><path d="M501.88331,113.99369c-4.52364,-6.7115 -13.63582,-8.48334 -20.34836,-3.95668l-7.50196,5.05674l-0.75009,-1.11675c0.15774,-0.12793 0.29057,-0.27909 0.46871,-0.39616l8.16109,-5.50781c6.71299,-4.52657 15.8256,-2.75465 20.35235,3.95745c2.46668,3.65808 3.00404,8.01075 1.95294,11.95526c0.41926,-3.38791 -0.27185,-6.93336 -2.33468,-9.99205z" fill="url(#color-61)"/><path d="M314.26073,94.72534c-3.57088,-5.97275 -1.93649,-13.74446 3.90055,-17.68605c5.8392,-3.93381 13.6571,-2.53685 17.85414,3.01013c-3.77199,1.09022 -7.90983,3.02643 -11.94365,5.74689c-4.03805,2.72332 -7.38541,5.83333 -9.81104,8.92903z" fill="url(#color-62)"/><path d="M492.51529,118.54967c-2.72116,-4.03028 -5.83288,-7.38303 -8.92057,-9.8002c5.96974,-3.56963 13.73861,-1.93947 17.68054,3.8958c3.93294,5.84133 2.53702,13.65621 -3.01427,17.85885c-1.08964,-3.77969 -3.02238,-7.9164 -5.7457,-11.95445z" fill="url(#color-63)"/><path d="M292.20084,249.70168c2.71978,4.03736 5.82998,7.38614 8.91928,9.80684c-5.97063,3.56945 -13.73995,1.9369 -17.68058,-3.90271c-3.93454,-5.84257 -2.53684,-13.6548 3.01165,-17.85246c1.08616,3.77396 3.02456,7.90993 5.74921,11.94824z" fill="url(#color-64)" opacity="0.8"/><path d="M470.44976,273.53135c3.57565,5.97183 1.9386,13.74304 -3.89758,17.6802c-5.84087,3.93763 -13.65496,2.54003 -17.85563,-3.0072c3.77323,-1.08952 7.91063,-3.02581 11.9478,-5.7493c4.03717,-2.7235 7.38241,-5.83208 9.8054,-8.92369z" fill="url(#color-65)" opacity="0.8"/><path d="M499.58775,119.40174c-0.89251,4.58997 -5.33021,7.58359 -9.92373,6.69039c-4.58688,-0.8919 -7.58361,-5.33481 -6.69188,-9.92079c0.89328,-4.59396 5.33299,-7.59086 9.92341,-6.69827c4.59352,0.8932 7.5885,5.33574 6.6922,9.92866z" fill="url(#color-66)" opacity="0.8"/><path d="M498.61038,119.20801c-0.7908,4.04798 -4.70882,6.69306 -8.75662,5.90597c-4.04469,-0.78648 -6.68915,-4.70761 -5.90258,-8.75274c0.78726,-4.04868 4.70698,-6.68835 8.75333,-5.90569c4.0482,0.78257 6.69234,4.70776 5.90587,8.75245z" fill="url(#color-67)" opacity="0.8"/><path d="M497.32623,118.95831c-0.65343,3.33916 -3.88153,5.51663 -7.22146,4.86719c-3.33595,-0.64866 -5.51775,-3.87807 -4.869,-7.21446c0.64521,-3.33708 3.88309,-5.51999 7.21904,-4.87132c3.33994,0.64944 5.52017,3.88221 4.87142,7.2186z" fill="url(#color-68)"/><path d="M495.58493,114.89147c0.21758,0.32319 0.13188,0.76394 -0.19164,0.98559l-3.12549,2.10133l2.1067,3.11917c0.22076,0.32336 0.13498,0.76454 -0.18777,0.98221c-0.32698,0.22052 -0.77172,0.13405 -0.9887,-0.19225l-2.10315,-3.11848l-3.11804,2.10324c-0.32457,0.22467 -0.76531,0.13896 -0.98298,-0.18379c-0.22129,-0.32474 -0.13854,-0.76726 0.18516,-0.99007l3.12557,-2.10178l-2.10963,-3.12296c-0.21749,-0.32544 -0.13195,-0.76536 0.19164,-0.98559c0.32668,-0.21712 0.76718,-0.13147 0.9887,0.19224l2.10133,3.12549l3.12316,-2.10592c0.32698,-0.22052 0.76757,-0.13163 0.98515,0.19156z" fill="#000000"/><path d="M467.67238,283.53567c-0.89251,4.58997 -5.33452,7.58689 -9.92804,6.69369c-4.58688,-0.89191 -7.58353,-5.33525 -6.695,-9.926c0.89259,-4.59042 5.33957,-7.58452 9.92645,-6.69262c4.59352,0.89319 7.5892,5.3345 6.6966,9.92492z" fill="url(#color-69)" opacity="0.8"/><path d="M466.69077,283.3448c-0.78665,4.04557 -4.70743,6.68827 -8.75626,5.9065c-4.04419,-0.79144 -6.6889,-4.71124 -5.90156,-8.76035c0.78571,-4.04071 4.70751,-6.68871 8.75264,-5.90215c4.04779,0.78708 6.68758,4.71097 5.90517,8.756z" fill="url(#color-70)" opacity="0.8"/><path d="M465.40618,283.09502c-0.64797,3.3324 -3.88144,5.51619 -7.22093,4.86683c-3.33639,-0.64875 -5.52016,-3.88222 -4.86762,-7.22155c0.64866,-3.33595 3.88083,-5.51308 7.21766,-4.86424c3.33949,0.64936 5.51662,3.88152 4.87133,7.21904z" fill="url(#color-71)"/><path d="M463.66601,279.02472c0.2172,0.32533 0.13173,0.76491 -0.19156,0.98514l-3.12272,2.10601l2.10324,3.11805c0.22121,0.32344 0.13533,0.76506 -0.18741,0.98273c-0.32673,0.2169 -0.76792,0.13111 -0.98913,-0.19233l-2.10263,-3.11884l-3.11856,2.10359c-0.32413,0.22476 -0.76531,0.13897 -0.98161,-0.19087c-0.22519,-0.32421 -0.13534,-0.76506 0.18741,-0.98273l3.12194,-2.10203l-2.10532,-3.12626c-0.10531,-0.15602 -0.14429,-0.34749 -0.10836,-0.53227c0.03593,-0.18478 0.14382,-0.34769 0.29992,-0.45288c0.32641,-0.21449 0.76452,-0.12766 0.98446,0.1951l2.10324,3.11804l3.12151,-2.1021c0.32544,-0.21749 0.76536,-0.13195 0.98559,0.19164z" fill="#000000"/><path d="M333.18408,87.04502c-0.89251,4.58997 -5.32975,7.58368 -9.92327,6.69048c-4.58643,-0.89182 -7.58362,-5.3348 -6.69189,-9.92078c0.89328,-4.59396 5.33299,-7.59087 9.92341,-6.69827c4.59352,0.8932 7.58849,5.33575 6.69175,9.92858z" fill="url(#color-72)" opacity="0.8"/><path d="M332.20715,86.85138c-0.79124,4.0479 -4.70882,6.69306 -8.75661,5.90597c-4.04469,-0.78648 -6.68915,-4.70761 -5.90259,-8.75274c0.78726,-4.04868 4.70699,-6.68836 8.75334,-5.90569c4.0482,0.78257 6.6919,4.70768 5.90542,8.75237z" fill="url(#color-73)" opacity="0.8"/><path d="M330.92256,86.60159c-0.65254,3.33933 -3.88152,5.51662 -7.22146,4.86718c-3.33595,-0.64866 -5.51686,-3.8779 -4.86811,-7.21429c0.64477,-3.33716 3.88221,-5.52016 7.2186,-4.87141c3.33994,0.64944 5.52016,3.88221 4.87141,7.2186z" fill="url(#color-74)"/><path d="M328.7286,82.23484c0.18485,0.03594 0.34784,0.14386 0.4531,0.3c0.21749,0.32544 0.13195,0.76537 -0.19164,0.9856l-3.12549,2.10132l2.10625,3.11909c0.22165,0.32353 0.13586,0.76472 -0.18689,0.98239c-0.32743,0.22043 -0.77215,0.13396 -0.98913,-0.19234l-2.10271,-3.1184l-3.11849,2.10316c-0.32413,0.22476 -0.76531,0.13897 -0.98298,-0.18378c-0.22129,-0.32474 -0.13854,-0.76726 0.18516,-0.99007l3.12558,-2.10178l-2.10964,-3.12296c-0.21749,-0.32544 -0.13195,-0.76536 0.19164,-0.98559c0.32673,-0.21687 0.76704,-0.13125 0.9887,0.19224l2.10177,3.12557l3.12228,-2.10609c0.15611,-0.10532 0.34765,-0.1443 0.53249,-0.10836z" fill="#000000"/><path d="M301.27623,251.18042c-0.89251,4.58998 -5.33452,7.58689 -9.92849,6.6936c-4.58643,-0.89182 -7.58308,-5.33516 -6.69412,-9.92582c0.89259,-4.59042 5.33913,-7.58461 9.92556,-6.69279c4.59352,0.89319 7.58964,5.33459 6.69705,9.92501z" fill="url(#color-75)" opacity="0.8"/><path d="M300.29418,250.98946c-0.78665,4.04558 -4.70699,6.68835 -8.75626,5.9065c-4.0433,-0.79127 -6.68846,-4.71115 -5.90112,-8.76027c0.78571,-4.04071 4.70751,-6.68871 8.7522,-5.90223c4.04779,0.78708 6.68802,4.71105 5.90562,8.75608z" fill="url(#color-76)" opacity="0.8"/><path d="M299.01048,250.73985c-0.64797,3.3324 -3.88143,5.51618 -7.22137,4.86674c-3.33639,-0.64875 -5.52017,-3.88222 -4.86763,-7.22154c0.64866,-3.33595 3.88128,-5.51299 7.21723,-4.86433c3.33994,0.64944 5.51707,3.88161 4.87133,7.21904z" fill="url(#color-77)"/><path d="M297.26987,246.66947c0.2172,0.32533 0.13173,0.76491 -0.19155,0.98514l-3.12272,2.10601l2.10324,3.11804c0.22121,0.32344 0.13533,0.76506 -0.18741,0.98273c-0.32673,0.21689 -0.76749,0.13119 -0.98914,-0.19233l-2.10262,-3.11884l-3.11857,2.1036c-0.32413,0.22475 -0.76531,0.13897 -0.98161,-0.19087c-0.22476,-0.32413 -0.13533,-0.76506 0.18741,-0.98273l3.12194,-2.10202l-2.10532,-3.12626c-0.21904,-0.32496 -0.13329,-0.76594 0.19156,-0.98514c0.32647,-0.21423 0.76437,-0.12745 0.98446,0.1951l2.10324,3.11804l3.12149,-2.1021c0.32544,-0.21749 0.76536,-0.13194 0.98559,0.19165zM492.26703,124.34202c0.21857,0.32325 0.13463,0.76238 -0.18777,0.9822" fill="#000000"/><path d="M282.71929,255.15362c4.53089,6.70969 13.63935,8.48402 20.35145,3.95728l7.50366,-5.05596l0.75254,1.11356c-0.1626,0.12698 -0.29596,0.2785 -0.46895,0.39979l-8.16661,5.50306c-6.7121,4.52674 -15.82117,2.75551 -20.35323,-3.95763c-2.46427,-3.65393 -2.99889,-8.00653 -1.94843,-11.95483c-0.42197,3.39474 0.27092,6.94052 2.32957,9.99473z" fill="url(#color-78)"/><path d="M473.35697,282.68082c-0.50428,4.05451 -2.63054,7.88971 -6.28758,10.35337c-6.709,4.52735 -15.82472,2.75482 -20.34836,-3.95668l-5.50651,-8.16544c-0.11897,-0.1707 -0.18426,-0.36452 -0.28611,-0.54293l1.11278,-0.75086l5.05698,7.49833c4.53039,6.71695 13.63981,8.48411 20.35235,3.95745c3.0587,-2.06283 5.02794,-5.09051 5.90643,-8.39326z" fill="url(#color-79)"/><path d="M432.03263,187.48199c-4.32947,22.2655 -25.88767,36.81045 -48.15317,32.48099c-22.26772,-4.32989 -36.80429,-25.89337 -32.4766,-48.15922c4.3308,-22.26294 25.88797,-36.80488 48.15303,-32.4755c22.26816,4.32998 36.80569,25.89089 32.47683,48.15329z" fill="url(#color-80)" opacity="0.6"/><path d="M482.96446,201.51098c-9.79512,50.35527 -58.56621,83.248 -108.9266,73.45556c-50.36748,-9.79381 -83.25603,-58.56502 -73.46225,-108.92055c9.79091,-50.36436 58.55873,-83.2568 108.92621,-73.46299c50.35951,9.79226 83.25223,58.56336 73.46265,108.92799zM464.72686,197.95738c7.83447,-40.29096 -18.48414,-79.30163 -58.77157,-87.13541c-40.29097,-7.83446 -79.30532,18.4724 -87.13979,58.76336c-7.83447,40.29097 18.47789,79.30777 58.76609,87.13756c40.29072,7.8381 79.31079,-18.47455 87.14526,-58.76551z" fill="url(#color-81)"/><path d="M310.63567,151.08893c16.7754,-38.6338 56.93778,-62.05937 98.00438,-54.07409c41.0666,7.98528 69.52548,44.75775 70.60038,86.85881c-3.93248,-39.91407 -31.67214,-75.94539 -71.22622,-83.64025c-39.55501,-7.68768 -78.77398,15.32372 -97.37854,50.85553z" fill="url(#color-82)" opacity="0.5"/><path d="M376.69357,261.28984c37.5734,7.30604 75.13017,-16.03224 93.15874,-51.66824c-16.32389,38.71378 -54.77215,62.48048 -93.78251,54.89503c-39.01367,-7.58977 -65.75288,-44.02831 -66.38558,-86.03925c3.37335,39.80122 29.43837,75.51057 67.00935,82.81247z" fill="url(#color-83)" opacity="0.4"/><path d="M465.45642,198.09924c-7.83447,40.29097 -47.72563,67.18723 -88.01659,59.35276c-40.28742,-7.83378 -67.18746,-47.71739 -59.35308,-88.00792c7.83455,-40.29141 47.72004,-67.18924 88.01101,-59.35477c40.28742,7.83378 67.19313,47.71897 59.35866,88.00993zM378.57756,251.61977c37.46777,7.28182 73.75622,-17.18895 81.0415,-54.65558c7.29004,-37.46985 -17.186,-73.75242 -54.65618,-81.03839c-37.47417,-7.28674 -73.75359,17.18256 -81.03956,54.65275c-7.28597,37.47019 17.18416,73.75483 54.65434,81.0408z" fill="url(#color-84)"/><path d="M418.1383,188.89837c-2.83239,14.56637 -16.93342,24.07208 -31.49649,21.24401c-14.56239,-2.83161 -24.07366,-16.93234 -21.24127,-31.49872c2.8317,-14.56283 16.93403,-24.07288 31.49642,-21.24126c14.56593,2.8323 24.0695,16.93246 21.24135,31.49598z" fill="url(#color-85)"/><path d="M424.73356,190.1808c-3.53989,18.20487 -21.16985,30.09709 -39.37599,26.5519c-18.20565,-3.5382 -30.09175,-21.16652 -26.55453,-39.3719c3.54255,-18.20435 21.16623,-30.09503 39.37642,-26.55411c18.20442,3.5398 30.09407,21.1688 26.5541,39.37411zM418.1383,188.89837c2.82815,-14.56352 -6.67542,-28.66367 -21.24135,-31.49598c-14.56239,-2.83161 -28.66471,6.67844 -31.49642,21.24127c-2.83239,14.56637 6.67889,28.6671 21.24127,31.49872c14.56308,2.82807 28.6641,-6.67763 31.49649,-21.24401z" fill="url(#color-86)"/><path d="M363.07881,172.35112c5.92903,-13.65393 20.26001,-22.67315 34.77146,-19.85144c14.51189,2.8218 24.41848,16.55393 24.799,31.43474c-1.39088,-14.1082 -11.18571,-26.83574 -25.16472,-29.55392c-13.97901,-2.71818 -27.8295,5.4116 -34.40574,17.97062z" fill="url(#color-87)" opacity="0.3"/><path d="M386.06463,213.11067c13.979,2.71818 27.8295,-5.4116 34.40591,-17.97151c-5.92782,13.64774 -20.25957,22.67323 -34.77146,19.85144c-14.51145,-2.82171 -24.41728,-16.56014 -24.79901,-31.43475c1.39071,14.10909 11.18555,26.83664 25.16456,29.55482z" fill="url(#color-88)" opacity="0.25"/><path d="M419.44894,189.15368c-2.96975,15.29405 -17.76852,25.27687 -33.06534,22.30245c-15.29175,-2.96976 -25.27116,-17.77431 -22.29785,-33.06537c0.19741,-1.01527 3.69068,18.30295 24.38854,22.32759c20.41879,3.97037 31.17607,-12.57687 30.97465,-11.56467z" fill="url(#color-89)" opacity="0.8"/><path d="M419.44902,189.15323c-2.96939,15.29458 -17.76853,25.27688 -33.06535,22.30245c-15.29192,-2.96887 -25.27124,-17.77387 -22.29793,-33.06493c2.97382,-15.29371 17.77106,-25.28281 33.06788,-22.30839c15.29364,2.97656 25.27269,17.78058 22.2954,33.07087z" fill="url(#color-90)"/><path d="M383.44695,179.11405c-3.09575,3.55842 -7.65709,4.66295 -10.19051,2.45929c-2.5342,-2.20198 -2.07934,-6.87705 1.01657,-10.43866c3.0962,-3.55833 7.66045,-4.66137 10.19627,-2.45587c2.52844,2.19855 2.07934,6.87475 -1.02233,10.43524z" fill="url(#color-91)" opacity="0.7"/><path d="M395.90605,169.14886c2.89812,-2.79742 8.44032,-1.76388 12.37276,2.3116c3.93039,4.07187 4.77199,9.64493 1.87456,12.4411c-2.89679,2.79767 -8.43517,1.76809 -12.37184,-2.30454c-3.93208,-4.07496 -4.769,-9.65078 -1.87548,-12.44817z" fill="url(#color-92)"/><path d="M323.09682,172.88325c0.10369,-0.61837 0.14217,-1.23472 0.26104,-1.846c7.39329,-38.02211 44.11194,-62.87078 82.00561,-55.50247c37.89765,7.36909 62.62362,44.16549 55.23033,82.18761c-0.11887,0.61129 -0.31794,1.20008 -0.44398,1.81044z" fill="url(#color-93)" opacity="0.5"/></g><text transform="translate(65.22525,42.46247) scale(1.15071,1.15071)" font-size="40" xml:space="preserve" fill="#000000" fill-rule="nonzero" stroke="#000000" stroke-width="3" stroke-linecap="butt" stroke-linejoin="miter" stroke-miterlimit="10" stroke-dasharray="" stroke-dashoffset="0" font-family="Arial" font-weight="normal" text-anchor="start" style="mix-blend-mode: normal"><tspan x="0" dy="0">BETTER AUDIO</tspan></text><text transform="translate(200.36039,342.7361) scale(1.54344,1.54344)" font-size="40" xml:space="preserve" fill="#000000" fill-rule="nonzero" stroke="#000000" stroke-width="3" stroke-linecap="butt" stroke-linejoin="miter" stroke-miterlimit="10" stroke-dasharray="" stroke-dashoffset="0" font-family="Arial" font-weight="normal" text-anchor="start" style="mix-blend-mode: normal"><tspan x="0" dy="0">V2</tspan></text></g></g></svg>